<svg width="60" height="60" fill="none" xmlns="http://www.w3.org/2000/svg"><g clip-path="url(#clip0_10930_15096)"><mask id="a" style="mask-type:luminance" maskUnits="userSpaceOnUse" x="0" y="0" width="60" height="60"><path d="M60 0H0v60h60V0z" fill="#fff"/></mask><g mask="url(#a)"><path fill-rule="evenodd" clip-rule="evenodd" d="M0 0h60v60H0V0z" fill="#4FC1F1"/><path fill-rule="evenodd" clip-rule="evenodd" d="M0 20h60v40H0V20z" fill="#E73A3D"/><path fill-rule="evenodd" clip-rule="evenodd" d="M0 40h60v20H0V40z" fill="#64A73A"/><path d="M27.509 36.67c-3.581 0-6.484-2.985-6.484-6.668 0-3.682 2.903-6.667 6.484-6.667 1.744 0 3.326.71 4.491 1.861C30.58 23.256 28.323 22 25.78 22 21.484 22 18 25.582 18 30s3.484 8 7.78 8c2.543 0 4.8-1.254 6.22-3.196a6.367 6.367 0 01-4.491 1.86v.005zM37 26l.957 2.151 2.578-.98-1.224 2.064L42 30l-2.689.765 1.224 2.063-2.578-.98L37 34l-.957-2.151-2.578.98 1.224-2.064L32 30l2.689-.765-1.224-2.063 2.578.98L37 26z" fill="#fff"/></g></g><defs><clipPath id="clip0_10930_15096"><path fill="#fff" d="M0 0h60v60H0z"/></clipPath></defs></svg>