<svg width="60" height="60" fill="none" xmlns="http://www.w3.org/2000/svg"><path d="M0 0h60v60H0V0z" fill="#fff"/><path d="M0 0h60v20H0V0z" fill="#FF6820"/><path d="M0 40h60v20H0V40z" fill="#046A38"/><path d="M29.998 39.25a9.25 9.25 0 100-18.5 9.25 9.25 0 000 18.5z" fill="#07038D"/><path d="M29.998 38a8 8 0 100-16 8 8 0 000 16z" fill="#fff"/><path d="M29.997 31.6a1.6 1.6 0 100-3.2 1.6 1.6 0 000 3.2z" fill="#07038D"/><path d="M29.997 22l.3 4.814-.3 2.383-.3-2.383.3-4.814zM30.996 22.415a.35.35 0 10.091-.694.35.35 0 00-.091.694zM29.997 38l-.3-4.815.3-2.383.3 2.383-.3 4.814zM28.998 37.584a.35.35 0 10-.091.694.35.35 0 00.091-.694zM32.034 22.284l-.882 4.723-.917 2.206.274-2.383 1.525-4.546zM32.932 22.922c.183.08.388.003.457-.17.069-.173-.024-.378-.207-.457-.184-.08-.388-.003-.458.17-.069.173.024.378.208.457zM27.958 37.716l.882-4.724.917-2.206-.274 2.383-1.525 4.547zM27.06 37.077c-.183-.08-.388-.003-.457.17-.069.173.024.378.207.457.184.08.389.004.458-.17.069-.173-.024-.378-.207-.457zM33.982 23.08l-2.113 4.317-1.456 1.898.907-2.217 2.662-3.997zM34.661 23.923a.347.347 0 00.49-.05.354.354 0 00-.077-.491.347.347 0 00-.491.05.354.354 0 00.078.491zM26.012 36.918l2.113-4.316 1.456-1.898-.907 2.217-2.662 3.997zM25.333 36.076a.347.347 0 00-.49.05.354.354 0 00.078.491.347.347 0 00.49-.05.353.353 0 00-.078-.491zM35.644 24.353l-3.169 3.613-1.9 1.456 1.456-1.901 3.613-3.168zM36.073 25.336c.121.157.34.192.49.078a.348.348 0 00.053-.491.353.353 0 00-.491-.078.348.348 0 00-.052.491zM24.35 35.646l3.169-3.613 1.9-1.456-1.456 1.901-3.613 3.168zM23.921 34.663a.353.353 0 00-.49-.078.348.348 0 00-.053.491c.122.157.341.192.491.078a.348.348 0 00.052-.491zM36.935 25.985l-4.04 2.672-2.211.956 1.929-1.447 4.322-2.18zM37.06 27.08c.07.174.274.252.457.174a.36.36 0 00.204-.457.34.34 0 00-.457-.175.36.36 0 00-.204.457zM23.06 34.014l4.04-2.672 2.211-.956-1.929 1.447-4.322 2.18zM22.935 32.92c-.07-.175-.274-.253-.457-.175a.36.36 0 00-.204.457.34.34 0 00.457.175.36.36 0 00.204-.458zM37.73 27.913l-4.586 1.541-2.378.353 2.235-.902 4.73-.992zM37.576 29.006a.339.339 0 00.393.29.363.363 0 00.313-.392.339.339 0 00-.393-.29.363.363 0 00-.313.392zM22.263 32.085l4.586-1.54 2.378-.353-2.234.901-4.73.992zM22.417 30.992a.339.339 0 00-.393-.29.363.363 0 00-.313.393.338.338 0 00.393.29.363.363 0 00.313-.393zM37.988 29.938l-4.811.32-2.369-.197 2.387-.28 4.793.157zM37.59 31.005c-.03.195.097.371.284.393a.366.366 0 00.392-.315c.03-.196-.096-.371-.283-.393a.366.366 0 00-.392.315zM22.006 30.061l4.811-.32 2.369.197-2.387.28-4.793-.157zM22.403 28.994c.03-.195-.096-.371-.283-.393a.366.366 0 00-.392.315c-.03.196.096.372.283.393a.366.366 0 00.392-.315zM37.726 32.067l-4.728-.95-2.224-.907 2.38.322 4.572 1.535zM37.066 32.928a.35.35 0 10.646.266.35.35 0 10-.646-.266zM22.27 27.931l4.728.95 2.224.908-2.38-.323-4.572-1.535zM22.93 27.07a.35.35 0 10-.646-.265.35.35 0 10.646.266zM36.935 34.014l-4.322-2.18-1.93-1.448 2.212.956 4.04 2.672zM36.06 34.65a.354.354 0 00.079.49.348.348 0 00.49-.05.353.353 0 00-.078-.491.347.347 0 00-.49.05zM23.062 25.985l4.322 2.18 1.93 1.448-2.212-.956-4.04-2.672zM23.936 25.35a.354.354 0 00-.078-.491.347.347 0 00-.49.05.353.353 0 00.078.491.347.347 0 00.49-.05zM35.666 35.667l-3.62-3.217-1.491-1.894 1.894 1.491 3.217 3.62zM34.647 36.062a.347.347 0 00-.051.49.354.354 0 00.49.08.347.347 0 00.051-.491.354.354 0 00-.49-.08zM24.328 24.332l3.62 3.217 1.491 1.894-1.894-1.491-3.217-3.62zM25.347 23.938a.347.347 0 00.051-.491.354.354 0 00-.49-.08.347.347 0 00-.051.491.354.354 0 00.49.08zM34.005 36.932l-2.67-4.03-.943-2.213 1.45 1.923 2.163 4.32zM32.923 37.063a.345.345 0 00-.183.457c.076.181.281.27.458.198a.345.345 0 00.182-.457.355.355 0 00-.457-.198zM25.99 23.066l2.67 4.03.943 2.213-1.45-1.922-2.163-4.321zM27.072 22.935a.345.345 0 00.183-.457.355.355 0 00-.458-.197.345.345 0 00-.182.457c.076.18.28.27.457.197zM32.076 37.73l-1.538-4.58-.338-2.378.904 2.23.972 4.728zM30.995 37.581a.345.345 0 00-.297.393c.027.193.203.33.393.307.19-.023.323-.2.296-.393a.356.356 0 00-.392-.307zM27.922 22.27l1.538 4.578.338 2.38-.904-2.23-.972-4.729zM29.003 22.418c.19-.023.323-.2.297-.393a.356.356 0 00-.393-.307.345.345 0 00-.296.393.356.356 0 00.392.307z" fill="#07038D"/></svg>