<svg xmlns="http://www.w3.org/2000/svg" viewBox="0 0 60 60"><path d="M0 40.8h60V60H0V40.8z" fill="#1eb53a"/><path d="M0 0h60v19.2H0V0z" fill="#0099b5"/><path d="M0 19.2h60v21.6H0V19.2z" fill="#ce1126"/><path d="M0 20.4h60v19.2H0V20.4zM12 9.6c0-3.6 2.6-6.5 6-7.1-.4-.1-.8-.1-1.2-.1-4 0-7.2 3.2-7.2 7.2s3.2 7.2 7.2 7.2c.4 0 .8 0 1.2-.1-3.4-.6-6-3.5-6-7.1z" fill="#fff"/><g fill="#fff"><path d="M33 14.9l-.4-1-.3 1h-1l.8.6-.3 1 .8-.6.9.6-.3-1 .8-.6zM32.6 8.2l-.3 1h-1l.8.6-.3 1 .8-.6.9.6-.3-1 .8-.6h-1zM32.6 2.4l-.3 1h-1l.8.6-.3 1 .8-.6.9.6-.3-1 .8-.6h-1zM38.7 14.9l-.3-1-.3 1H37l.9.6-.3 1 .8-.6.8.6-.3-1 .9-.6zM38.4 8.2l-.3 1H37l.9.6-.3 1 .8-.6.8.6-.3-1 .9-.6h-1.1zM38.4 2.4l-.3 1H37l.9.6-.3 1 .8-.6.8.6-.3-1 .9-.6h-1.1zM44.5 14.9l-.3-1-.4 1h-1l.8.6-.3 1 .9-.6.8.6-.3-1 .8-.6zM44.2 8.2l-.4 1h-1l.8.6-.3 1 .9-.6.8.6-.3-1 .8-.6h-1zM43.3 5l.9-.6.8.6-.3-1 .8-.6h-1l-.3-1-.4 1h-1l.8.6zM21.4 14.9l-.3-1-.3 1h-1l.8.6-.3 1 .8-.6.9.6-.4-1 .9-.6zM27.2 14.9l-.3-1-.3 1h-1.1l.9.6-.4 1 .9-.6.8.6-.3-1 .8-.6zM26.9 8.2l-.3 1h-1.1l.9.6-.4 1 .9-.6.8.6-.3-1 .8-.6h-1z"/></g></svg>