<svg width="82" height="21" fill="none" xmlns="http://www.w3.org/2000/svg"><path d="M19.779 4.21V17.41c0 .813-.648 1.46-1.452 1.46H17.08c-.812 0-1.46-.647-1.46-1.46v-6.925H7.736c.008.813.123 5.555 1.263 7.582.083.147.361.566.394.631.041.05.337.542-.36.37-.714-.173-4.718-2.618-4.718-9.78 0-7.163 2.429-7.656 3.487-8.222 1.05-.566.722.328.55.886-.173.558-1.034 3.988-.567 5.571.009.017.009.05.017.074h7.818V2.126c-.009-.124-.05-.263-.148-.32 0 0-.082-.099-.353-.124-.27-.016-.082-.32.017-.418.098-.098.59-.804 1.681-.804 1.091 0 1.903.328 2.51 1.567.28.542.452 1.247.452 2.174v.009z" fill="url(#paint0_linear_12181_16541)"/><path d="M6.48 19.897s-3.79-2.215-4.626-7.212c-.837-4.997.435-7.031 1.928-8.016-.28 1.058-1.034 4.439-.107 7.614 0 0 1.173 4.685 2.633 6.039 1.452 1.354 2.297 1.51 2.642 1.69.344.18.303.985-1.395.985 0 0-6.431.369-7.555-6.22-.008-1.074.435-2.338.78-2.338.344 0 .369 2.223 1.73 4.226 1.362 2.001 2.15 2.592 3.97 3.24v-.008z" fill="url(#paint1_linear_12181_16541)"/><path d="M38.957 1.928v10.765c0 .509-.057 1.017-.18 1.502a6.686 6.686 0 01-6.514 5.193h-2.247a6.686 6.686 0 01-6.17-4.11 6.608 6.608 0 01-.516-2.585V1.928c0-.812.648-1.46 1.452-1.46h1.247c.812 0 1.46.648 1.46 1.46v10.527c0 2.018 1.64 3.512 3.65 3.512s3.66-1.494 3.66-3.512V1.928c0-.812.647-1.46 1.451-1.46h1.247c.812 0 1.46.648 1.46 1.46z" fill="url(#paint2_linear_12181_16541)"/><path d="M72.788 0c-5.84 0-9.204 4.332-9.204 9.682 0 5.35 3.322 9.681 9.204 9.681 5.882 0 9.212-4.332 9.212-9.681C82 4.332 78.637 0 72.788 0zm0 16.804c-2.797 0-5.078-3.167-5.078-7.081 0-3.914 1.862-7.09 5.078-7.09s5.078 3.168 5.078 7.09c0 3.922-2.272 7.08-5.078 7.08z" fill="url(#paint3_linear_12181_16541)"/><path d="M59.236 18.896c-2.174 0-1.961-1.928-1.977-2.823-.017-.894-.222-10.322-.222-10.322l-3.97 7.95c-.558 1.109-2.141 1.109-2.7 0l-3.978-7.95s-.205 9.74-.221 10.322c-.017.583.188 2.823-1.977 2.823-2.166 0-1.805-2.109-1.78-2.97.024-.862.377-12.964.377-12.964S42.928.509 44.15.509h2.182s.886-.14 1.64 1.6c.583 1.312 2.462 5.283 3.331 7.113a.463.463 0 00.837 0c.861-1.83 2.74-5.8 3.322-7.114.747-1.739 1.64-1.6 1.64-1.6h2.183c1.222 0 1.362 2.454 1.362 2.454s.336 11.79.377 12.963c.04 1.174.394 2.97-1.78 2.97h-.008z" fill="url(#paint4_linear_12181_16541)"/><defs><linearGradient id="paint0_linear_12181_16541" x1="2.478" y1="3.619" x2="15.03" y2="10.788" gradientUnits="userSpaceOnUse"><stop offset=".2" stop-color="#B39F4D"/><stop offset=".3" stop-color="#DECB80"/><stop offset=".4" stop-color="#F0DE96"/><stop offset=".7" stop-color="#9C8837"/></linearGradient><linearGradient id="paint1_linear_12181_16541" x1="-2.674" y1="8.648" x2="12.741" y2="17.679" gradientUnits="userSpaceOnUse"><stop offset=".2" stop-color="#B39F4D"/><stop offset=".3" stop-color="#DECB80"/><stop offset=".4" stop-color="#F0DE96"/><stop offset=".7" stop-color="#9C8837"/></linearGradient><linearGradient id="paint2_linear_12181_16541" x1="21.033" y1="3.044" x2="39.377" y2="13.535" gradientUnits="userSpaceOnUse"><stop offset=".2" stop-color="#B39F4D"/><stop offset=".3" stop-color="#DECB80"/><stop offset=".4" stop-color="#F0DE96"/><stop offset=".7" stop-color="#9C8837"/></linearGradient><linearGradient id="paint3_linear_12181_16541" x1="61.681" y1="4.431" x2="78.991" y2="12.617" gradientUnits="userSpaceOnUse"><stop offset=".2" stop-color="#B39F4D"/><stop offset=".3" stop-color="#DECB80"/><stop offset=".4" stop-color="#F0DE96"/><stop offset=".7" stop-color="#9C8837"/></linearGradient><linearGradient id="paint4_linear_12181_16541" x1="42.041" y1="6.252" x2="62.108" y2="13.502" gradientUnits="userSpaceOnUse"><stop offset=".2" stop-color="#B39F4D"/><stop offset=".3" stop-color="#DECB80"/><stop offset=".4" stop-color="#F0DE96"/><stop offset=".7" stop-color="#9C8837"/></linearGradient></defs></svg>