<svg width="104" height="23" fill="none" xmlns="http://www.w3.org/2000/svg"><path d="M46.813 17.495V.5h3.381v16.995h-3.38z" fill="#F7A600"/><path d="M7.272 22.5H0V5.539h6.98c3.392 0 5.368 1.857 5.368 4.764 0 1.881-1.269 3.096-2.148 3.502 1.049.476 2.392 1.548 2.392 3.812 0 3.167-2.22 4.883-5.32 4.883zm-.56-14.007h-3.32V12.4h3.32c1.439 0 2.245-.786 2.245-1.954S8.15 8.493 6.71 8.493zm.219 6.885H3.393v4.169H6.93c1.538 0 2.269-.952 2.269-2.097 0-1.144-.732-2.072-2.27-2.072zM22.973 15.545V22.5h-3.34v-6.955L14.454 5.54h3.653l3.219 6.836 3.17-6.836h3.653l-5.177 10.005zM37.778 22.5h-7.351V5.539h7.056c3.43 0 5.428 1.857 5.428 4.764 0 1.881-1.283 3.096-2.172 3.502 1.06.476 2.418 1.548 2.418 3.812 0 3.167-2.245 4.883-5.379 4.883zm-.566-14.007h-3.356V12.4h3.356c1.455 0 2.27-.786 2.27-1.954s-.815-1.953-2.27-1.953zm.221 6.885h-3.577v4.169h3.577c1.555 0 2.294-.952 2.294-2.097 0-1.144-.739-2.072-2.294-2.072zM61.125 8.494V22.5H57.72V8.494h-4.558V5.54h12.523v2.954h-4.559z" fill="#fff"/><path d="M76.105 6c-2.731 0-4.947 2.062-4.947 4.607v9.604H91.46l3.746-5.962-3.61-5.66h2.409l2.377 3.791 2.382-3.79h2.328L92.299 22.5l7.931-2.462c1.309-.379 3.77-1.692 3.77-4.007V6H76.105zm2.605 8.894h-2.104v3.01H74.53v-7.386c0-1.014.882-1.836 1.97-1.836h2.21c1.685 0 3.052 1.274 3.052 2.844v.524c0 1.572-1.367 2.844-3.053 2.844zm10.315 3.01l-2.49-7.095-2.49 7.096h-2.282l3.528-9.223h2.49l3.527 9.223h-2.283zm-9.365-6.143v.221c0 .725-.632 1.312-1.408 1.312h-1.646v-2.846h1.646c.776 0 1.408.589 1.408 1.313z" fill="url(#paint0_linear_14545_25949)"/><defs><linearGradient id="paint0_linear_14545_25949" x1="71.158" y1="14.25" x2="104" y2="14.25" gradientUnits="userSpaceOnUse"><stop stop-color="#0081BF"/><stop offset="1" stop-color="#91FC30"/></linearGradient></defs></svg>