<svg width="80" height="27" fill="none" xmlns="http://www.w3.org/2000/svg"><g clip-path="url(#clip0_12186_19270)"><path d="M5.063.5H71.28c.76 0 1.421.303 1.793.911l6.606 10.73c.51.842.414 1.863-.303 2.707l-9.307 10.729c-.511.58-1.173.924-1.918.924H2.111c-1.31 0-2.247-1.02-2.096-2.305L2.47 2.806A2.617 2.617 0 015.048.5" fill="#0CBBBC"/><path d="M44.57 18.891l1.02-8.16c.69-.469 1.476-.841 2.138-.841.869 0 1.297.648 1.159 1.768l-.896 7.25h3.143l.98-7.912.027-.22c.69-.47 1.489-.87 2.165-.87.869 0 1.297.648 1.159 1.768l-.896 7.25h3.143l.98-7.912c.262-2.209-.869-3.55-2.896-3.55-1.406.001-2.895.801-3.889 1.534-.427-.981-1.351-1.533-2.674-1.533s-2.58.649-3.585 1.312l.138-1.009H42.85L41.444 18.91h3.143l-.014-.015-.002-.003zm18.562-6.6c.317-1.477 1.379-2.333 2.689-2.333s2.027.732 2.027 1.92c0 .138 0 .29-.015.427H63.13v-.015l.002.002zm-3.296 1.491c-.042 2.79 1.986 5.372 6.122 5.372 1.475 0 2.716-.29 3.833-.98l.22-2.624c-.91.552-2.289.94-3.488.94-1.585 0-3.006-.691-3.406-2.293h7.695c.11-.29.206-.98.206-1.644 0-2.94-1.627-5.081-4.963-5.081-3.337 0-6.165 1.989-6.206 6.323m-38.225 1.838c0-1.202 1.406-1.657 2.855-1.657h1.475l-.22 1.808c-.62.497-1.737 1.009-2.675 1.009-.841 0-1.42-.47-1.42-1.16m-3.159.248c-.027 1.809 1.449 3.273 3.696 3.273 1.586 0 2.744-.676 3.406-1.408l-.139 1.132h3.034l.732-6.033c.359-2.983-.62-5.412-4.455-5.412-1.558 0-3.448.36-4.468 1.02l-.317 2.5c.828-.442 2.426-.994 3.89-.994 1.765 0 2.385.884 2.316 1.808H24.3c-2.717 0-5.805 1.05-5.834 4.101m-8.687.304l.69-5.482c.674-.539 1.42-.76 2.095-.732 1.338.014 2.069 1.09 2.069 2.761 0 2.168-1.131 4.019-3.048 4.019-.607 0-1.297-.194-1.806-.552m-3.89 6.379h3.117l.51-4.212c.496.372 1.407.8 2.565.8 3.614 0 5.805-3.19 5.805-6.67 0-2.967-1.406-5.039-4.026-5.039-1.24 0-2.386.4-3.255 1.118l.11-.829h-3.02L5.89 22.55v.016zM38.643 7.749l-3.379 7.705-1.766-7.705h-3.475l3.089 11.17-1.806 3.659h3.42l7.28-14.816h-3.378l.014-.014z" fill="#fff"/></g><defs><clipPath id="clip0_12186_19270"><path fill="#fff" transform="translate(0 .5)" d="M0 0h80v26H0z"/></clipPath></defs></svg>