<svg width="42" height="49" fill="none" xmlns="http://www.w3.org/2000/svg"><path d="M.183 42.274v-1.423-10.05c0-4.446 3.89-8.448 8.31-8.537 4.155-.089 8.399-.089 12.554 0 4.509.089 8.31 3.913 8.487 8.36.177 4.891-3.183 8.893-7.868 9.338-.796.089-1.592.089-2.476.089H4.073c-1.592.089-3.095.534-3.89 2.223z" fill="#fff"/><path d="M.006 24.843v-1.6-9.783c0-4.27 3.006-7.115 7.25-6.937 2.475.177 5.038.088 7.514.088 2.74 0 4.95 1.512 6.012 4.092.972 2.312.265 5.158-1.592 6.936-1.149 1.157-2.652 1.69-4.243 1.78-2.564 0-5.216.088-7.78 0-3.183-.09-5.658 1.778-6.896 4.713 0 .177-.177.533-.265.711zM6.192 43.252c-.088.089 0 .178 0 .356v4.446c0 .267 0 .445-.353.445-.354 0-.443-.089-.443-.445v-5.602c0-.356.089-.445.443-.445.884 0 .707-.09.972.711.619 1.423 1.15 2.846 1.768 4.27 0 .088 0 .177.177.177l.796-1.868c.442-.978.795-1.956 1.237-2.934.089-.267.266-.356.53-.356.885 0 .796-.09.796.8v5.247c0 .267 0 .445-.353.445-.354 0-.354-.267-.354-.534v-4.268-.445c-.177.089-.177.178-.177.267-.618 1.423-1.237 2.846-1.768 4.269-.088.266-.265.355-.619.355-.265 0-.442-.178-.53-.444-.619-1.512-1.238-2.935-1.857-4.447-.176.089-.176 0-.265 0z" fill="#F49627"/><path d="M2.835 46.098h-1.68c-.354 0-.354.09-.265.445.442 1.245 1.945 1.512 2.829.534.265-.267.442-.267.707-.267.265 0 .265.089.177.267-.354.8-1.326 1.422-2.21 1.334-1.327-.09-2.299-1.068-2.387-2.402-.089-1.334.884-2.4 2.121-2.579 1.326-.178 2.653.978 2.741 2.313 0 .266-.088.355-.354.355h-1.68zm-.354-.711h1.326c.177 0 .265-.09.177-.267-.354-.534-.796-.89-1.415-.89-.618 0-1.149.268-1.503.801-.088.267-.088.267.177.267.442 0 .884.089 1.238.089zM27.324 46.9v1.156c0 .266-.089.355-.354.355s-.442 0-.354-.355c0-.09 0-.178-.088-.267-.088-.09-.177.089-.265.089-.884.622-2.034.622-2.918-.09-.795-.71-1.06-1.867-.707-2.934.354-.978 1.415-1.601 2.475-1.512 1.061.089 1.945.89 2.21 2.045V46.9zm-2.476.71c.973 0 1.68-.71 1.68-1.689 0-.978-.796-1.779-1.68-1.779-.884 0-1.68.8-1.68 1.779 0 .978.708 1.69 1.68 1.69zM17.334 46.898v1.156c0 .267-.088.356-.354.267-.176 0-.442 0-.442-.267 0-.355-.088-.266-.353-.178-1.061.712-2.387.534-3.183-.444-.796-.978-.796-2.401.089-3.29.707-.712 1.68-.979 2.652-.623.972.355 1.591 1.245 1.591 2.312v1.067zm-2.387.712c.973 0 1.68-.712 1.68-1.69s-.796-1.69-1.68-1.69c-.972 0-1.68.8-1.68 1.779 0 .89.708 1.6 1.68 1.6zM17.864 46.721v-1.245c0-1.156.884-2.045 1.945-2.045 1.15-.089 2.033.8 2.122 1.868.088.889 0 1.867 0 2.757 0 .355-.266.355-.442.355-.266 0-.266-.089-.266-.355v-2.58c0-1.067-1.06-1.69-1.945-1.156-.442.267-.707.623-.707 1.068v2.579c0 .444-.177.533-.619.444-.177 0-.088-.178-.088-.267v-1.422zM27.765 44.676v-2.312c0-.267.088-.356.353-.356.266 0 .442.089.354.356v.711c0 .267.088.356.354.356h.265c.353 0 .442.089.442.444 0 .267-.089.356-.354.356-.707-.089-.707-.089-.707.623v1.778c0 .623.177.89.796 1.068.353.089.176.444.176.622s-.176.178-.265.178c-.884-.089-1.414-.623-1.414-1.6v-2.224z" fill="#fff"/><path d="M22.991.83c.972.623 1.326 1.957.707 2.936-.619.978-1.945 1.334-2.917.711-.973-.622-1.326-1.956-.707-2.935A2.065 2.065 0 0122.99.831zM20.163 7.856a7.12 7.12 0 011.326 1.868l.972-1.512c.442-.8.265-1.779-.53-2.223l-3.183-1.957c-.796-.445-1.768-.267-2.21.534l-.62 1.067c1.68.356 3.095 1.067 4.245 2.223z" fill="#F49627"/><path d="M38.198 27.422c.353 1.245-.442 2.58-1.768 2.846-1.238.356-2.564-.445-2.83-1.779-.353-1.245.443-2.579 1.769-2.845 1.237-.267 2.564.533 2.829 1.778zM30.596 30.802c0 .889-.089 1.69-.354 2.579l1.945-.445c.973-.267 1.503-1.156 1.326-2.134l-.972-4.002c-.265-.979-1.15-1.512-2.122-1.335l-1.326.356c.972 1.423 1.503 3.202 1.503 4.98zM38.904 19.24c-.177-.178-.265-.534-.088-.8 1.06-3.202.707-6.582-1.238-9.25-2.034-2.934-5.481-4.802-9.018-4.89a.795.795 0 01-.795-.801c0-.445.353-.8.795-.8 4.067.088 7.957 2.223 10.256 5.602 2.21 3.202 2.652 7.026 1.414 10.761-.177.445-.619.623-1.06.534-.09-.178-.178-.267-.266-.356z" fill="#fff"/><path d="M37.58 17.017l.442 4.892 3.979-2.846-4.42-2.046z" fill="#fff"/></svg>