<svg width="48" height="48" fill="none" xmlns="http://www.w3.org/2000/svg"><g clip-path="url(#clip0_5637_32003)"><path fill="url(#paint0_linear_5637_32003)" d="M10 18h31v28H10z"/><g filter="url(#filter0_b_5637_32003)"><path d="M40.537.712h-32.8a3.083 3.083 0 00-3.082 3.083v41.1a3.083 3.083 0 003.083 3.083h32.8a3.083 3.083 0 003.082-3.083v-41.1A3.083 3.083 0 0040.537.712z" fill="url(#paint1_linear_5637_32003)"/><path d="M7.738 1.007h32.8a2.787 2.787 0 012.787 2.788v41.1a2.787 2.787 0 01-2.788 2.788h-32.8a2.787 2.787 0 01-2.786-2.788v-41.1a2.787 2.787 0 012.787-2.788z" stroke="url(#paint2_linear_5637_32003)" stroke-opacity=".51" stroke-width=".591"/></g><path d="M36.248 42.462c-.597-.203-1.43-.304-2.499-.304-1.896 0-3.71.262-5.445.787a.98.98 0 01-.306.055.828.828 0 01-.322-.078c-.115-.047-.228-.145-.338-.296-.225-.302-.338-.7-.338-1.193 0-.426.076-.728.228-.904.152-.177.393-.359.723-.546.33-.192.723-.403 1.178-.631.456-.23.954-.473 1.493-.733.545-.265 1.09-.54 1.634-.827a30.356 30.356 0 001.58-.904c.513-.317.966-.64 1.359-.967.87-.722 1.304-1.4 1.304-2.034 0-.505-.317-.814-.95-.928a3.55 3.55 0 00-.621-.047c-.236 0-.514.031-.833.094a6.251 6.251 0 00-1.752.608c-.252.13-.472.265-.66.405-.404.307-.605.598-.605.873 0 .27.175.497.526.678-.13.188-.251.312-.361.375a.63.63 0 01-.275.086c-.073 0-.197-.019-.37-.055a2.52 2.52 0 01-.502-.18c-.393-.202-.59-.43-.59-.685 0-.26.09-.515.268-.764a3.53 3.53 0 01.73-.718 6.704 6.704 0 011.053-.639 10.26 10.26 0 011.257-.514c.933-.318 1.802-.476 2.609-.476.843 0 1.498.21 1.964.632.409.374.613.857.613 1.45 0 1.356-1.074 2.767-3.221 4.233a22.369 22.369 0 01-3.214 1.816c.513-.052.953-.078 1.32-.078.372 0 .678.005.92.016.24.01.484.028.73.054.508.052.932.135 1.273.25.34.109.573.239.7.39.135.171.203.35.203.538 0 .384-.154.771-.463 1.161z" fill="url(#paint3_linear_5637_32003)"/><g filter="url(#filter1_i_5637_32003)"><path d="M21.069 39.758h-9.303a1.028 1.028 0 100 2.055h9.303a1.027 1.027 0 100-2.055z" fill="url(#paint4_linear_5637_32003)"/><path d="M36.426 27.428h-24.66a1.028 1.028 0 000 2.055h24.66a1.027 1.027 0 000-2.055z" fill="url(#paint5_linear_5637_32003)"/><path d="M25.069 33.5H11.766a1.028 1.028 0 100 2.055h13.303a1.027 1.027 0 100-2.055z" fill="url(#paint6_linear_5637_32003)"/></g><g filter="url(#filter2_i_5637_32003)"><path d="M36.426 21.262H35.4v-5.665a.5.5 0 00-.5-.5h-1.055a.5.5 0 00-.5.5v5.665h-2.055v-5.665a.5.5 0 00-.5-.5h-1.055a.5.5 0 00-.5.5v5.665h-2.055v-5.665a.5.5 0 00-.5-.5h-1.055a.5.5 0 00-.5.5v5.665h-2.055v-5.665a.5.5 0 00-.5-.5h-1.055a.5.5 0 00-.5.5v5.665h-1.028a1.028 1.028 0 100 2.055h16.44a1.028 1.028 0 100-2.055z" fill="url(#paint7_linear_5637_32003)"/><path d="M36.886 10.067l-8.22-4.11a1.028 1.028 0 00-.92 0l-8.22 4.11a1.028 1.028 0 00-.567.92v1.027a1.028 1.028 0 001.027 1.028h16.44a1.028 1.028 0 001.028-1.028v-1.027a1.027 1.027 0 00-.568-.92z" fill="url(#paint8_linear_5637_32003)"/></g></g><defs><linearGradient id="paint0_linear_5637_32003" x1="17.477" y1="17.497" x2="47.545" y2="29.239" gradientUnits="userSpaceOnUse"><stop stop-color="#2AFF33"/><stop offset=".703" stop-color="#076130"/></linearGradient><linearGradient id="paint1_linear_5637_32003" x1="2.421" y1="1.989" x2="49.967" y2="9.919" gradientUnits="userSpaceOnUse"><stop stop-color="#64FF6A"/><stop offset=".51" stop-color="#29BA2F"/><stop offset=".975" stop-color="#008445"/></linearGradient><linearGradient id="paint2_linear_5637_32003" x1="5.873" y1="2.86" x2="43.62" y2="2.86" gradientUnits="userSpaceOnUse"><stop stop-color="#fff"/><stop offset="1" stop-color="#0F6"/></linearGradient><linearGradient id="paint3_linear_5637_32003" x1="41.124" y1="46.052" x2="27.962" y2="36.811" gradientUnits="userSpaceOnUse"><stop stop-color="#BCFFE3"/><stop offset="1" stop-color="#F0F2FF"/></linearGradient><linearGradient id="paint4_linear_5637_32003" x1="37.101" y1="41.65" x2="16.046" y2="23.015" gradientUnits="userSpaceOnUse"><stop stop-color="#BCFFE3"/><stop offset="1" stop-color="#F0F2FF"/></linearGradient><linearGradient id="paint5_linear_5637_32003" x1="37.101" y1="41.65" x2="16.046" y2="23.015" gradientUnits="userSpaceOnUse"><stop stop-color="#BCFFE3"/><stop offset="1" stop-color="#F0F2FF"/></linearGradient><linearGradient id="paint6_linear_5637_32003" x1="37.101" y1="41.65" x2="16.046" y2="23.015" gradientUnits="userSpaceOnUse"><stop stop-color="#BCFFE3"/><stop offset="1" stop-color="#F0F2FF"/></linearGradient><linearGradient id="paint7_linear_5637_32003" x1="37.21" y1="23.119" x2="16.491" y2="12.665" gradientUnits="userSpaceOnUse"><stop stop-color="#BCFFE3"/><stop offset="1" stop-color="#F0F2FF"/></linearGradient><linearGradient id="paint8_linear_5637_32003" x1="37.21" y1="23.119" x2="16.491" y2="12.665" gradientUnits="userSpaceOnUse"><stop stop-color="#BCFFE3"/><stop offset="1" stop-color="#F0F2FF"/></linearGradient><filter id="filter0_b_5637_32003" x="-9.345" y="-13.288" width="66.965" height="75.266" filterUnits="userSpaceOnUse" color-interpolation-filters="sRGB"><feFlood flood-opacity="0" result="BackgroundImageFix"/><feGaussianBlur in="BackgroundImageFix" stdDeviation="7"/><feComposite in2="SourceAlpha" operator="in" result="effect1_backgroundBlur_5637_32003"/><feBlend in="SourceGraphic" in2="effect1_backgroundBlur_5637_32003" result="shape"/></filter><filter id="filter1_i_5637_32003" x="10.738" y="27.428" width="26.716" height="18.324" filterUnits="userSpaceOnUse" color-interpolation-filters="sRGB"><feFlood flood-opacity="0" result="BackgroundImageFix"/><feBlend in="SourceGraphic" in2="BackgroundImageFix" result="shape"/><feColorMatrix in="SourceAlpha" values="0 0 0 0 0 0 0 0 0 0 0 0 0 0 0 0 0 0 127 0" result="hardAlpha"/><feOffset dy="3.939"/><feGaussianBlur stdDeviation="1.969"/><feComposite in2="hardAlpha" operator="arithmetic" k2="-1" k3="1"/><feColorMatrix values="0 0 0 0 1 0 0 0 0 1 0 0 0 0 1 0 0 0 0.4 0"/><feBlend in2="shape" result="effect1_innerShadow_5637_32003"/></filter><filter id="filter2_i_5637_32003" x="18.959" y="5.849" width="18.496" height="21.407" filterUnits="userSpaceOnUse" color-interpolation-filters="sRGB"><feFlood flood-opacity="0" result="BackgroundImageFix"/><feBlend in="SourceGraphic" in2="BackgroundImageFix" result="shape"/><feColorMatrix in="SourceAlpha" values="0 0 0 0 0 0 0 0 0 0 0 0 0 0 0 0 0 0 127 0" result="hardAlpha"/><feOffset dy="3.939"/><feGaussianBlur stdDeviation="1.969"/><feComposite in2="hardAlpha" operator="arithmetic" k2="-1" k3="1"/><feColorMatrix values="0 0 0 0 1 0 0 0 0 1 0 0 0 0 1 0 0 0 0.4 0"/><feBlend in2="shape" result="effect1_innerShadow_5637_32003"/></filter><clipPath id="clip0_5637_32003"><path fill="#fff" d="M.505.712h47.266v47.266H.505z"/></clipPath></defs></svg>