<svg xmlns="http://www.w3.org/2000/svg" width="104" height="15" fill="none"><path fill="#fff" d="M55.118 7.412v7.412h2.796v-.791l.004-.789.092.118c.05.065.235.257.407.428.622.615 1.303.963 2.22 1.143.383.074 1.466.074 1.844 0 2.14-.422 3.641-2.07 4.063-4.465.078-.428.111-1.547.06-2.034-.22-2.117-1.425-3.848-3.156-4.539a5 5 0 00-2.079-.342c-.908.035-1.649.265-2.354.726-.243.16-.8.68-1.002.934l-.095.118V2.664L57.914 0h-2.796zm6.337-1.338c1.08.213 1.933 1.078 2.234 2.257.077.313.11 1.101.06 1.48a3.47 3.47 0 01-.789 1.777c-.318.375-.95.755-1.46.879-.573.126-1.17.08-1.717-.13-.744-.28-1.398-.998-1.672-1.837-.238-.717-.234-1.742.003-2.466a2.96 2.96 0 012.418-2.01 3.32 3.32 0 01.923.05m31.89 1.338v7.412h2.797v-2.351c0-1.47.011-2.341.026-2.33.018.01.864 1.066 1.883 2.347l1.85 2.334h1.812c1.509 0 1.807-.007 1.786-.039a267 267 0 00-2.434-2.75 557 557 0 01-2.418-2.73c-.003-.012 1.077-1.261 2.403-2.775q1.216-1.388 2.425-2.783c.012-.014-.688-.026-1.794-.026H99.87l-1.857 2.35-1.856 2.35-.01-4.21L96.143 0h-2.797zM6.474 5.985c-.01 4.83-.012 5.173-.063 5.34-.22.743-.73 1.135-1.48 1.135-.923 0-1.48-.543-1.605-1.564a5 5 0 01-.023-.325H.5v.094c0 .053.015.257.033.45.098 1.116.475 1.98 1.154 2.645.759.74 1.755 1.137 3.014 1.199 1.061.05 2.1-.19 2.825-.656 1.045-.667 1.616-1.677 1.747-3.082q.032-.342.033-5.368V.827H6.479zm17.468-3.637v1.374h-1.31v2.303h1.306l.012 2.973c.01 2.664.015 3.007.06 3.257.246 1.338.943 2.114 2.172 2.422.493.121.836.148 1.999.148h1.056v-2.363h-.765c-.836 0-1.047-.023-1.291-.145-.193-.094-.327-.289-.38-.551-.025-.122-.033-.981-.033-2.956V6.025h2.469V3.721h-2.47V.975h-2.825zm-7.958 1.228c-2.345.245-4.088 1.742-4.635 3.984a6.6 6.6 0 00-.19 1.463c-.06 1.793.46 3.291 1.52 4.377.443.454.85.755 1.371 1.01.815.402 1.473.554 2.47.58 1.123.03 1.983-.147 2.843-.586 1.107-.565 2.002-1.6 2.434-2.808l.089-.257h-1.508l-1.508.003-.134.227a2.5 2.5 0 01-.379.47 1.6 1.6 0 01-.52.374 2.15 2.15 0 01-.916.249c-.884.062-1.541-.15-2.11-.685a2.72 2.72 0 01-.8-1.645l-.024-.204 4.046-.006 4.05-.01.02-.116c.048-.231.063-1.261.027-1.625-.131-1.331-.646-2.456-1.517-3.324-.852-.844-1.95-1.344-3.242-1.474a9.4 9.4 0 00-1.387.003m1.418 2.368c.525.136 1.066.478 1.378.872.26.321.426.752.476 1.221l.02.202h-5.27l.018-.128q.086-.436.267-.844c.363-.764 1.071-1.273 1.96-1.403.051-.006.265-.01.476-.003.292.006.459.027.675.083m17.472-2.371c-1.3.148-2.466.679-3.34 1.518-1.172 1.127-1.723 2.595-1.663 4.432.041 1.21.336 2.212.913 3.085C31.804 14.15 33.468 15 35.464 15c2.07 0 3.76-.85 4.822-2.422q.407-.641.672-1.354c.316-.955.384-2.198.175-3.237a6 6 0 00-.764-1.928c-.818-1.305-2.165-2.167-3.813-2.442-.337-.056-1.337-.083-1.682-.044m1.355 2.495a2.87 2.87 0 011.779 1.447c.125.248.247.614.303.915.054.275.072 1.114.033 1.418-.175 1.355-.913 2.276-2.088 2.612-.283.083-.936.113-1.27.06a2.58 2.58 0 01-1.817-1.226c-.406-.66-.567-1.8-.406-2.834.11-.688.346-1.19.756-1.618.42-.437.857-.683 1.43-.804.266-.056 1.019-.038 1.28.03m35.477-2.491a5 5 0 00-1.61.475 4.2 4.2 0 00-1.204.88c-.88.871-1.38 1.943-1.582 3.38-.048.352-.048 1.456 0 1.846.175 1.397.672 2.495 1.534 3.387a4.66 4.66 0 002.883 1.429c.42.047 1.169.02 1.576-.062a4.5 4.5 0 001.696-.73c.28-.196.744-.644.872-.832l.086-.133.01.803.005.804h2.826V3.722h-2.826v1.567l-.146-.171a4.54 4.54 0 00-2.21-1.412 5.7 5.7 0 00-1.91-.13m1.922 2.494a2.76 2.76 0 011.436.792c.31.313.473.549.64.933.39.912.354 2.282-.083 3.145-.461.912-1.259 1.464-2.276 1.582a2.84 2.84 0 01-1.687-.349c-.496-.28-1.02-.87-1.245-1.41-.352-.83-.39-1.952-.1-2.79.257-.74.857-1.41 1.536-1.713a2.94 2.94 0 011.78-.19M48.023 3.615c-.985.162-1.824.607-2.448 1.296l-.155.168V3.721h-2.797v11.103h2.794l.01-3.405.008-3.402.08-.295c.203-.73.598-1.235 1.198-1.52.287-.136.501-.195.89-.237.348-.038.803 0 1.113.091a2.23 2.23 0 011.476 1.448c.167.493.167.498.167 4.048v3.272h2.798l-.01-3.686c-.01-3.616-.013-3.688-.076-4.006-.2-1.022-.559-1.742-1.189-2.369a4.16 4.16 0 00-2.17-1.119c-.35-.066-1.365-.082-1.689-.029m38.227 0c-.943.157-1.746.563-2.37 1.207l-.263.269V3.72h-2.796v11.104h2.797v-3.097c0-1.777.011-3.23.03-3.42q.058-.672.315-1.169a2.22 2.22 0 011.35-1.086c.682-.186 1.467-.124 2.023.165.678.351 1.107 1.028 1.218 1.917.02.18.032 1.316.032 3.475v3.213h2.796v-3.478c0-3.713-.006-3.887-.15-4.495-.2-.85-.522-1.453-1.072-2.023A4.03 4.03 0 0088 3.658c-.405-.08-1.374-.106-1.75-.043"/></svg>