<svg width="48" height="49" fill="none" xmlns="http://www.w3.org/2000/svg"><g clip-path="url(#clip0_14710_29665)"><path d="M48 .5H0v48h48V.5z" fill="#EF3124"/><path d="M33.174 34.067H14.825v3.813h18.35v-3.813z" fill="#fff"/><mask id="a" style="mask-type:luminance" maskUnits="userSpaceOnUse" x="0" y="0" width="48" height="49"><path d="M48 .5H0v48h48V.5z" fill="#fff"/></mask><g mask="url(#a)"><path d="M27.358 12.748c-.523-1.56-1.126-2.793-3.192-2.793-2.067 0-2.708 1.227-3.26 2.793l-5.677 16.14h3.764l1.31-3.838h7.245l1.215 3.838h4.004l-5.411-16.14h.002zm-5.956 9.062l2.574-7.65h.095l2.431 7.65h-5.1z" fill="#fff"/></g></g><defs><clipPath id="clip0_14710_29665"><rect y=".5" width="48" height="48" rx="24" fill="#fff"/></clipPath></defs></svg>