<svg width="73" height="20" fill="none" xmlns="http://www.w3.org/2000/svg"><path fill-rule="evenodd" clip-rule="evenodd" d="M55.872 19.91h-3.91L57.395 0h3.91l-5.434 19.91zm-32.498-1.248A1.806 1.806 0 0121.646 20H1.486c-.552 0-.962-.19-1.23-.57-.267-.38-.329-.85-.169-1.41L5.005.054h3.911l-4.392 16.05h15.643L24.56.055h3.911l-5.096 18.608zM53.841.624c-.267-.38-.686-.57-1.256-.57H31.098l-1.06 3.904h19.545l-1.14 4.167H32.809v-.01h-3.911L25.655 20h3.91l2.174-7.971h17.577c.552 0 1.069-.19 1.55-.57.48-.379.802-.849.953-1.41l2.174-7.97c.169-.596.115-1.076-.152-1.455z" fill="#fff"/><path fill-rule="evenodd" clip-rule="evenodd" d="M68.056.036L73 10.013l-10.395 9.978 1.236-4.526 5.685-5.452-2.705-5.458L68.056.036z" fill="#0E8635"/><path fill-rule="evenodd" clip-rule="evenodd" d="M64.582.036l4.944 9.977-10.404 9.978L64.582.036z" fill="#E97208"/></svg>