<svg width="65" height="44" fill="none" xmlns="http://www.w3.org/2000/svg"><g clip-path="url(#clip0_14484_27322)"><path d="M61.023.031h-57a4 4 0 00-4 4v36a4 4 0 004 4h57a4 4 0 004-4v-36a4 4 0 00-4-4z" fill="url(#paint0_linear_14484_27322)"/><path d="M61.023.431h-57a3.6 3.6 0 00-3.6 3.6v36a3.6 3.6 0 003.6 3.6h57a3.6 3.6 0 003.6-3.6v-36a3.6 3.6 0 00-3.6-3.6z" stroke="#fff" stroke-opacity=".5" stroke-width=".8"/><path d="M42.023 37.887h-2.43l1.52-9.68h2.43l-1.52 9.68zM50.833 28.443a5.835 5.835 0 00-2.18-.412c-2.4 0-4.09 1.318-4.1 3.203-.02 1.39 1.21 2.163 2.13 2.626.94.474 1.26.783 1.26 1.205-.01.649-.76.948-1.46.948-.97 0-1.49-.154-2.28-.515l-.32-.155-.34 2.173c.57.268 1.62.505 2.71.515 2.55 0 4.21-1.297 4.23-3.306.01-1.102-.64-1.946-2.04-2.636-.85-.443-1.37-.742-1.37-1.195.01-.412.44-.834 1.4-.834.79-.02 1.37.175 1.81.371l.22.103.33-2.09zM54.063 34.458l.97-2.708c-.01.02.2-.567.32-.927l.17.834s.46 2.317.56 2.8h-2.02zm3-6.251h-1.88c-.58 0-1.02.175-1.27.803l-3.61 8.877h2.55l.51-1.452h3.12c.07.34.29 1.452.29 1.452h2.25l-1.96-9.68zM37.563 28.207l-2.38 6.601-.26-1.339c-.44-1.545-1.82-3.223-3.36-4.057l2.18 8.465h2.57l3.82-9.67h-2.57z" fill="#fff"/><path d="M32.973 28.207h-3.91l-.04.196c3.05.803 5.07 2.74 5.9 5.067l-.85-4.45c-.14-.617-.57-.793-1.1-.813z" fill="#fff"/><path d="M4.21 34.325C21.585 16.316 49.2 10.491 60.837 9.83c-29.99-1.11-50.247 8-56.627 12.694v11.801z" fill="url(#paint1_linear_14484_27322)"/></g><defs><linearGradient id="paint0_linear_14484_27322" x1=".023" y1=".031" x2="65.023" y2="44.031" gradientUnits="userSpaceOnUse"><stop stop-color="#43F1FF"/><stop offset="1" stop-color="#0B9FF9"/></linearGradient><linearGradient id="paint1_linear_14484_27322" x1="57.068" y1="9.737" x2="4.21" y2="31.251" gradientUnits="userSpaceOnUse"><stop stop-color="#85D6F6"/><stop offset="1" stop-color="#B2EDFF" stop-opacity="0"/></linearGradient><clipPath id="clip0_14484_27322"><path fill="#fff" d="M0 0h65v44H0z"/></clipPath></defs></svg>