<svg xmlns="http://www.w3.org/2000/svg" width="80" height="32" fill="none"><path fill="#fff" d="M37.838 15.636v9.377h-2.956V1.85h7.835a7.05 7.05 0 015.073 2.005 6.46 6.46 0 012.118 4.888 6.44 6.44 0 01-2.118 4.918q-2.056 1.976-5.073 1.971zm0-10.933v8.087h4.952a3.88 3.88 0 002.922-1.198 3.967 3.967 0 00.077-5.583q-.038-.041-.077-.078a3.84 3.84 0 00-2.922-1.229zm18.88 3.945q3.276 0 5.17 1.762 1.894 1.764 1.893 4.834v9.769h-2.825v-2.201h-.127q-1.836 2.717-4.882 2.717-2.6.001-4.35-1.553a4.97 4.97 0 01-1.75-3.881q.001-2.46 1.847-3.913 1.844-1.453 4.93-1.454c1.752 0 3.2.324 4.332.968v-.681a3.4 3.4 0 00-1.22-2.633 4.17 4.17 0 00-2.851-1.084q-2.475 0-3.917 2.103l-2.6-1.65q2.14-3.104 6.35-3.103m-3.824 11.514c-.004.77.362 1.492.978 1.94a3.6 3.6 0 002.296.777 4.7 4.7 0 003.324-1.39c.979-.929 1.468-2.015 1.468-3.268q-1.382-1.11-3.854-1.11-1.8-.001-3.003.874c-.807.594-1.21 1.313-1.21 2.177M80 9.165L70.138 32h-3.05l3.66-7.99L64.26 9.165h3.21l4.69 11.385h.064l4.56-11.385z"/><path fill="#4285F4" d="M25.897 13.61q.002-1.363-.228-2.707H13.21v5.124h7.134a6.16 6.16 0 01-2.637 4.044v3.328h4.26c2.492-2.312 3.93-5.738 3.93-9.789"/><path fill="#34A853" d="M13.21 26.616c3.566 0 6.569-1.178 8.757-3.213l-4.26-3.328c-1.186.81-2.71 1.272-4.496 1.272-3.445 0-6.37-2.339-7.416-5.492H1.408v3.43c2.242 4.496 6.81 7.331 11.803 7.331"/><path fill="#FBBC04" d="M5.794 15.855a8.03 8.03 0 010-5.094V7.333H1.407a13.4 13.4 0 000 11.953z"/><path fill="#EA4335" d="M13.21 5.27a7.15 7.15 0 015.067 1.995l3.774-3.798A12.66 12.66 0 0013.21.001C8.218 0 3.65 2.84 1.408 7.332l4.387 3.43C6.84 7.609 9.765 5.27 13.21 5.27"/></svg>