<svg width="48" height="48" fill="none" xmlns="http://www.w3.org/2000/svg"><path d="M47.352 29.514c3.046-12.897-4.94-25.82-17.838-28.866C16.617-2.398 3.694 5.588.648 18.486c-3.046 12.897 4.94 25.82 17.838 28.866 12.897 3.046 25.82-4.94 28.866-17.838z" fill="#fff"/><path d="M34.888 17.739c0-.938-.805-1.743-1.743-1.743h-3.217l-7.373-8.445c-.67-.804-1.742-1.072-2.815-.804l-2.547.804c-.402.134-.536.67-.268.939l8.043 7.64H12.77c-.402 0-.67.268-.67.67v1.341c0 .938.804 1.743 1.742 1.743h1.877v6.434c0 4.826 2.547 7.64 6.836 7.64 1.34 0 2.413-.133 3.754-.67v4.29c0 1.207.938 2.145 2.144 2.145h1.877c.402 0 .804-.402.804-.804v-19.17h3.084c.402 0 .67-.267.67-.67v-1.34zm-8.58 11.528c-.804.402-1.876.536-2.68.536-2.145 0-3.218-1.072-3.218-3.485v-6.434h5.899v9.383z" fill="#5F259F"/></svg>