<svg width="84" height="21" fill="none" xmlns="http://www.w3.org/2000/svg"><path fill-rule="evenodd" clip-rule="evenodd" d="M22.07 11.078c0 3.819-6.172 9.922-10.035 9.922C8.173 21 2 14.897 2 11.078 2 7.26 8.173 1.156 12.035 1.156c3.863 0 10.036 6.104 10.036 9.922zm-6.02 0c0 1.528-2.47 3.969-4.015 3.969-1.544 0-4.014-2.441-4.014-3.969 0-1.527 2.47-3.969 4.014-3.969 1.545 0 4.014 2.442 4.014 3.97z" fill="#0065FF"/><path d="M32.999 21c3.745 0 6.092-2.322 6.804-5.372h-4.114c-.501 1.043-1.293 1.825-2.69 1.825-1.688 0-2.928-1.2-2.928-3.26 0-2.06 1.24-3.259 2.928-3.259 1.397 0 2.189.783 2.69 1.826h4.114c-.712-3.051-3.06-5.372-6.804-5.372-4.01 0-6.937 3.025-6.937 6.806 0 3.78 2.928 6.805 6.937 6.805zm8.208-.288h3.983V1.156h-3.983v19.556zm8.34-14.81c1.399 0 2.506-1.095 2.506-2.451S50.946 1 49.548 1c-1.345 0-2.48 1.095-2.48 2.45 0 1.357 1.135 2.452 2.48 2.452zm-1.977 14.81h3.982V7.675H47.57v13.037zM60.077 21c3.745 0 6.092-2.32 6.805-5.371h-4.115c-.501 1.043-1.292 1.825-2.69 1.825-1.688 0-2.927-1.2-2.927-3.26 0-2.06 1.24-3.259 2.927-3.259 1.398 0 2.189.783 2.69 1.826h4.115c-.713-3.051-3.06-5.372-6.805-5.372-4.008 0-6.936 3.025-6.936 6.806 0 3.78 2.928 6.805 6.936 6.805zm17.097-.287H82l-6.013-7.144 4.852-5.893h-4.72l-3.85 4.667V1.156h-3.983v19.556h3.982v-5.814l4.906 5.814z" fill="#fff"/></svg>