<svg width="78" height="23" fill="none" xmlns="http://www.w3.org/2000/svg"><path d="M77.737 6.786c-.708-1.905-2.637-3.272-4.904-3.272h-.047c-1.474 0-2.801.577-3.746 1.503a5.342 5.342 0 00-3.747-1.503h-.047a5.36 5.36 0 00-3.388 1.184v-.375c-.031-.374-.358-.668-.762-.668H57.62c-.425 0-.769.323-.769.725v17.76c0 .402.344.725.769.725h3.476c.388 0 .706-.273.757-.625l-.002-12.75c0-.044.002-.086.007-.127.056-.57.499-1.037 1.199-1.096h.641c.292.025.54.122.734.268.302.226.47.574.47.955l.014 12.687c0 .402.345.726.768.726h3.477c.41 0 .743-.307.763-.69l-.002-12.74a1.182 1.182 0 01.566-1.021c.179-.108.393-.18.64-.202h.641c.752.062 1.206.599 1.205 1.223l.013 12.67c0 .402.345.725.768.725h3.477c.423 0 .768-.323.768-.725V8.516c0-.929-.111-1.324-.263-1.73zM54.202 3.7h-1.988V.67.66c0-.365-.314-.66-.702-.66a.738.738 0 00-.132.014c-2.204.569-1.763 3.441-5.787 3.686h-.39a.852.852 0 00-.17.018c-.342.073-.6.36-.6.705v3.27c0 .399.344.723.77.723H47.3l-.003 13.869c0 .395.34.715.76.715h3.437c.419 0 .76-.32.76-.715V8.416h1.948c.424 0 .769-.324.769-.723v-3.27c0-.399-.345-.723-.769-.723z" fill="#54C1F0"/><path d="M41.695 3.699h-3.476c-.424 0-.767.324-.767.723v6.762c-.008.419-.368.754-.814.754h-1.456c-.451 0-.816-.341-.816-.766l-.013-6.75c0-.399-.345-.723-.768-.723h-3.477c-.425 0-.768.324-.768.723v7.412c0 2.815 2.134 4.822 5.128 4.822 0 0 2.246 0 2.315.013.405.043.721.363.721.756 0 .39-.309.708-.71.756-.02.003-.037.008-.058.01l-5.084.018c-.425 0-.769.324-.769.723V22.2c0 .4.344.723.769.723h5.684c2.995 0 5.128-2.006 5.128-4.823V4.42c0-.398-.344-.722-.769-.722zM8.047 9.692v2.018c0 .424-.365.768-.815.768l-2.206.002V8.435h2.206c.45 0 .815.342.815.766v.491zM8.352 3.7H.754c-.417 0-.754.318-.754.709v3.204l.002.019L0 7.675V22.18c0 .394.314.716.703.725h3.542c.423 0 .768-.323.768-.723l.013-4.97h3.326c2.783 0 4.723-1.818 4.723-4.447V8.151c0-2.63-1.94-4.452-4.723-4.452zM22.467 17.37v.511a.716.716 0 01-.013.12.714.714 0 01-.033.107c-.108.286-.412.493-.773.493H20.2c-.452 0-.82-.323-.82-.72v-.616l-.001-.023.001-1.642v-.514l.002-.004c.002-.396.366-.716.818-.716h1.447c.453 0 .819.322.819.72v2.285zm-.553-13.652h-4.823c-.427 0-.772.304-.772.678v1.272l.001.025-.001.028v1.743c0 .395.366.718.817.718h4.594c.362.054.65.303.691.692v.422a.745.745 0 01-.672.672h-2.274c-3.025 0-5.18 1.89-5.18 4.546v3.803c0 2.64 1.852 4.518 4.856 4.518h6.303c1.132 0 2.05-.806 2.05-1.798V8.627c0-3.01-1.649-4.91-5.59-4.91z" fill="#fff"/></svg>