<svg width="107" height="33" fill="none" xmlns="http://www.w3.org/2000/svg"><path d="M6.75 9.745l4.273-4.273 4.275 4.275 2.486-2.486L11.024.5l-6.76 6.759 2.487 2.486zM4.995 11.5L2.51 9.013.023 11.5l2.486 2.486 2.486-2.487zM6.751 13.255l4.272 4.273 4.275-4.275 2.487 2.485-.001.001-6.76 6.761-6.763-6.762 2.49-2.483zM19.537 13.987l2.486-2.486-2.485-2.486-2.486 2.486 2.485 2.486z" fill="#F3BA2F"/><path d="M13.545 11.499h.001l-2.522-2.523L8.5 11.5l.003.004 2.52 2.52 2.523-2.523.001-.001-.002-.001zM26.023 6.5h5.41c1.343 0 2.358.334 3.046 1.001.533.517.799 1.158.799 1.923v.032c0 .323-.041.609-.124.856a2.627 2.627 0 01-.812 1.195c-.183.151-.378.28-.588.388.675.248 1.206.584 1.593 1.01.387.425.581 1.015.581 1.769v.032c0 .517-.102.97-.308 1.357-.205.388-.5.71-.882.97a4.202 4.202 0 01-1.382.58 7.671 7.671 0 01-1.79.195h-5.543V6.5zm4.87 4.571c.566 0 1.017-.094 1.35-.282.333-.189.5-.493.5-.913v-.032c0-.377-.145-.665-.434-.864-.289-.2-.705-.3-1.25-.3h-2.535v2.391h2.368zm.683 4.556c.567 0 1.011-.1 1.334-.299.322-.199.484-.509.484-.929v-.032c0-.377-.15-.676-.45-.897-.3-.22-.784-.33-1.451-.33h-2.969v2.487h3.052zM38.976 6.5h2.285v11.308h-2.285V6.5zM45.071 6.5h2.261l5.223 6.962V6.5h2.42v11.308H52.89l-5.398-7.189v7.189h-2.42V6.5zM62.644 6.5h2.187l4.62 11.308h-2.479l-.986-2.518h-4.559l-.985 2.518h-2.419L62.644 6.5zm2.495 6.608l-1.432-3.64-1.432 3.64h2.864zM71.738 6.5h2.261l5.223 6.962V6.5h2.42v11.308h-2.086l-5.398-7.189v7.189h-2.42V6.5zM90.618 17.808a6.287 6.287 0 01-2.362-.438 5.83 5.83 0 01-1.882-1.195 5.487 5.487 0 01-1.684-3.99v-.031c0-.781.148-1.512.446-2.195.297-.682.71-1.28 1.238-1.796a5.766 5.766 0 011.899-1.218c.737-.297 1.552-.445 2.444-.445.539 0 1.031.042 1.477.125.446.083.85.198 1.214.343.363.146.699.323 1.007.531.308.209.595.438.859.688l-1.618 1.765a6.155 6.155 0 00-1.379-.906 3.683 3.683 0 00-1.577-.328c-.484 0-.933.088-1.346.265a3.185 3.185 0 00-1.065.734 3.401 3.401 0 00-.693 1.086 3.518 3.518 0 00-.248 1.32v.03c0 .47.083.912.248 1.328.165.417.393.781.685 1.093.292.313.644.56 1.057.742.413.183.867.273 1.362.273.66 0 1.219-.114 1.676-.343a6.488 6.488 0 001.362-.937l1.618 1.546a8.233 8.233 0 01-.924.812 5.549 5.549 0 01-2.295 1.008 7.932 7.932 0 01-1.52.133zM97.642 6.5h8.302v2.213h-5.907v2.294h5.199v2.213h-5.199v2.374h5.986v2.214h-8.38V6.5z" fill="#F3BA2F"/><path d="M34.89 25.042c0 2.534-2.06 3.85-4.58 3.85h-2.274V32.5h-2.013V21.273h4.516c2.666 0 4.351 1.475 4.351 3.769zm-2.045.048c0-1.331-.965-2.02-2.47-2.02h-2.34v4.04h2.34c1.522 0 2.47-.817 2.47-2.02zm8.878-3.898L46.762 32.5h-2.127l-1.161-2.71h-5.415L36.88 32.5h-2.062l5.039-11.308h1.865zm1.014 6.85l-1.98-4.492-1.962 4.491h3.942zm9.582-.017V32.5H50.29v-4.427l-4.548-6.8h2.373l3.206 4.972 3.24-4.972h2.306l-4.548 6.752z" fill="#fff"/></svg>