<svg width="65" height="44" fill="none" xmlns="http://www.w3.org/2000/svg"><rect width="65" height="44" rx="4" fill="url(#paint0_linear_14484_27540)"/><rect x=".4" y=".4" width="64.2" height="43.2" rx="3.6" stroke="#fff" stroke-opacity=".3" stroke-width=".8"/><path d="M41.51 22.818h8.039v13.364h-8.038V22.818z" fill="#FF5F00"/><path d="M42.32 29.5c0-1.286.286-2.555.836-3.712a8.498 8.498 0 012.338-2.97 8.268 8.268 0 00-3.578-1.665 8.188 8.188 0 00-3.93.192 8.304 8.304 0 00-3.405 2.007 8.52 8.52 0 00-2.124 3.374 8.655 8.655 0 00-.371 3.991 8.593 8.593 0 001.466 3.721 8.389 8.389 0 002.975 2.622 8.213 8.213 0 008.967-.878 8.496 8.496 0 01-2.338-2.97 8.659 8.659 0 01-.836-3.712z" fill="#EB001B"/><path d="M59 29.501a8.62 8.62 0 01-1.272 4.503 8.396 8.396 0 01-3.42 3.132 8.202 8.202 0 01-4.53.808 8.254 8.254 0 01-4.26-1.76 8.493 8.493 0 002.338-2.97 8.655 8.655 0 000-7.425 8.493 8.493 0 00-2.338-2.97 8.254 8.254 0 014.26-1.76 8.202 8.202 0 014.53.808 8.395 8.395 0 013.42 3.131A8.62 8.62 0 0159 29.501z" fill="#F79E1B"/><path d="M4.187 34.294C21.562 16.284 49.177 10.46 60.813 9.8c-29.989-1.11-50.246 8-56.626 12.694v11.801z" fill="url(#paint1_linear_14484_27540)"/><defs><linearGradient id="paint0_linear_14484_27540" x1="0" y1="0" x2="65" y2="44" gradientUnits="userSpaceOnUse"><stop stop-color="#007CFF"/><stop offset="1" stop-color="#0D56F1"/></linearGradient><linearGradient id="paint1_linear_14484_27540" x1="57.045" y1="9.706" x2="4.187" y2="31.22" gradientUnits="userSpaceOnUse"><stop stop-color="#73AAFF" stop-opacity=".6"/><stop offset=".5" stop-color="#7DB5FF" stop-opacity=".3"/><stop offset="1" stop-color="#2F8BF8" stop-opacity="0"/></linearGradient></defs></svg>