<svg width="60" height="41" fill="none" xmlns="http://www.w3.org/2000/svg"><path fill-rule="evenodd" clip-rule="evenodd" d="M34.554 2.274A1.596 1.596 0 0033.143.51a1.6 1.6 0 00-1.77 1.406l-.74 6.521c-.098.875.533 1.665 1.412 1.764a1.6 1.6 0 001.77-1.406l.739-6.521zM23.978 4.078a1.605 1.605 0 00-2.258-.156 1.59 1.59 0 00-.156 2.25l4.033 4.617c.58.664 1.592.734 2.258.155a1.59 1.59 0 00.157-2.25l-4.034-4.616zm17.05 5.195a1.59 1.59 0 00-.115-2.252 1.605 1.605 0 00-2.26.114l-2.788 3.075a1.59 1.59 0 00.115 2.252c.656.59 1.668.54 2.26-.114l2.788-3.075zm-21.274 3.513a1.6 1.6 0 00-1.807 1.359 1.596 1.596 0 001.364 1.8l3.624.505a1.6 1.6 0 001.807-1.359 1.596 1.596 0 00-1.364-1.8l-3.624-.505zM49.844 40.5c-3.167 0-5.658-1.193-7.471-3.578-1.79-2.41-2.684-5.601-2.684-9.576 0-3.976.894-7.156 2.684-9.541 1.813-2.41 4.304-3.614 7.471-3.614 3.192 0 5.683 1.205 7.472 3.614 1.79 2.385 2.685 5.565 2.685 9.54 0 3.976-.895 7.168-2.685 9.577-1.789 2.385-4.28 3.578-7.472 3.578zM46 33.525c.87 1.397 2.152 2.096 3.844 2.096 1.693 0 2.975-.71 3.845-2.132.895-1.422 1.342-3.47 1.342-6.143 0-2.699-.447-4.759-1.342-6.18-.87-1.422-2.152-2.133-3.845-2.133-1.692 0-2.974.711-3.844 2.133-.87 1.421-1.306 3.481-1.306 6.18 0 2.698.435 4.758 1.306 6.179zm-8.725-18.829h-4.353l-6.674 2.35 1.233 4.264 4.788-1.337v20.02h5.006V14.696zm-12.247 8.75c-1.234-1.348-2.89-2.023-4.97-2.023-2.394 0-4.195.867-5.404 2.602-1.064-1.735-2.709-2.602-4.933-2.602-2.273 0-3.954.807-5.042 2.421V21.93H0v18.069h4.68V29.843c0-1.325.301-2.337.906-3.035.629-.7 1.463-1.048 2.503-1.048.967 0 1.716.3 2.248.903.532.602.798 1.446.798 2.53v10.805h4.68V29.843c0-1.325.29-2.337.87-3.035.605-.7 1.439-1.048 2.503-1.048.967 0 1.717.3 2.248.903.533.602.799 1.446.799 2.53v10.805h4.679v-11.13c0-2.265-.629-4.072-1.887-5.421z" fill="#fff"/></svg>