<svg width="36" height="36" fill="none" xmlns="http://www.w3.org/2000/svg"><path fill-rule="evenodd" clip-rule="evenodd" d="M36 18c0-9.939-8.061-18-18-18C8.056 0 0 8.056 0 18s8.061 18 18 18 18-8.061 18-18zm-15.78-5.08v2.68c4.971.23 8.706 1.217 8.706 2.39 0 1.183-3.735 2.166-8.702 2.396v8.58h-4.429v-8.58c-4.976-.23-8.721-1.213-8.721-2.396 0-1.183 3.745-2.165 8.721-2.395V12.92H9.67V8.839h16.675v4.082H20.22zm-.06 6.745l.064-.003c4.386-.195 7.66-.963 7.67-1.877 0-.914-3.275-1.682-7.665-1.877V18.9h-.018c-.166.014-.854.068-2.162.068-1.14 0-1.96-.049-2.249-.069v-2.991c-4.4.195-7.68.963-7.68 1.877 0 .919 3.285 1.682 7.68 1.877v-.005a45.25 45.25 0 002.23.05c1.263 0 1.91-.032 2.13-.042z" fill="#4DDBAF"/></svg>