<svg width="36" height="36" fill="none" xmlns="http://www.w3.org/2000/svg"><path d="M18 0C8.059 0 0 8.059 0 18s8.059 18 18 18c9.94 0 18-8.059 18-18C36.029 8.088 28.017.029 18.105 0H18zm.305 18.61l-1.874 6.32h10.024a.505.505 0 01.523.488v.166l-.872 3.007a.65.65 0 01-.653.48H10.11l2.572-8.761-2.877.872.654-2.005 2.876-.872 3.618-12.29a.658.658 0 01.654-.48h3.879a.506.506 0 01.523.488v.166l-3.051 10.373 2.876-.872-.61 2.092-2.92.828z" fill="#345D9D"/><path d="M18 0C8.059 0 0 8.059 0 18s8.059 18 18 18c9.94 0 18-8.059 18-18C36.029 8.088 28.017.029 18.105 0H18zm.305 18.61l-1.874 6.32h10.024a.505.505 0 01.523.488v.166l-.872 3.007a.65.65 0 01-.653.48H10.11l2.572-8.761-2.877.872.654-2.005 2.876-.872 3.618-12.29a.658.658 0 01.654-.48h3.879a.506.506 0 01.523.488v.166l-3.051 10.373 2.876-.872-.61 2.092-2.92.828z" fill="#A5C2EF"/></svg>