<svg width="65" height="44" fill="none" xmlns="http://www.w3.org/2000/svg"><rect width="65" height="44" rx="4" fill="url(#paint0_linear_14840_30805)"/><rect x=".4" y=".4" width="64.2" height="43.2" rx="3.6" stroke="#fff" stroke-opacity=".35" stroke-width=".8"/><path d="M4.187 34.294C21.562 16.284 49.177 10.46 60.813 9.8c-29.989-1.11-50.246 8-56.626 12.694v11.801z" fill="url(#paint1_linear_14840_30805)"/><path d="M28.918 30.504v6.287a.691.691 0 01-.691.695h-.594a.692.692 0 01-.695-.695v-3.298h-3.754c.003.387.058 2.645.601 3.61.04.07.172.27.188.301.02.024.16.258-.172.176-.34-.082-2.246-1.246-2.246-4.657s1.156-3.646 1.66-3.915c.5-.27.344.156.262.422-.082.265-.493 1.899-.27 2.653.004.008.004.023.008.035h3.723v-2.606c-.004-.059-.024-.125-.07-.152 0 0-.04-.047-.169-.06-.129-.007-.039-.152.008-.198.047-.047.281-.383.8-.383.52 0 .907.156 1.196.746.133.258.215.594.215 1.035v.004z" fill="#fff"/><path d="M22.586 37.975s-1.805-1.055-2.203-3.434c-.399-2.38.207-3.348.918-3.817-.133.504-.492 2.113-.05 3.625 0 0 .558 2.231 1.253 2.876.691.645 1.094.719 1.258.805.164.086.144.469-.664.469 0 0-3.063.175-3.598-2.962-.004-.512.207-1.113.371-1.113s.176 1.059.824 2.012c.649.953 1.024 1.234 1.891 1.543v-.004zM38.05 29.418v5.126c0 .242-.026.485-.085.715a3.184 3.184 0 01-3.102 2.473h-1.07a3.184 3.184 0 01-3.184-3.188v-5.126c0-.387.309-.695.692-.695h.594c.386 0 .695.308.695.695v5.013c0 .961.781 1.672 1.738 1.672s1.742-.711 1.742-1.672v-5.013c0-.387.309-.695.692-.695h.594c.386 0 .695.308.695.695zM54.16 28.5c-2.78 0-4.382 2.063-4.382 4.61 0 2.548 1.582 4.61 4.383 4.61 2.8 0 4.386-2.062 4.386-4.61 0-2.547-1.601-4.61-4.386-4.61zm0 8.002c-1.331 0-2.417-1.508-2.417-3.372 0-1.864.886-3.376 2.418-3.376 1.531 0 2.418 1.508 2.418 3.376 0 1.867-1.082 3.372-2.418 3.372zM47.707 37.498c-1.035 0-.933-.918-.941-1.344-.008-.426-.106-4.915-.106-4.915l-1.89 3.786a.72.72 0 01-1.285 0L41.59 31.24s-.098 4.638-.106 4.915c-.007.278.09 1.344-.94 1.344-1.032 0-.86-1.004-.849-1.414l.18-6.173s.066-1.169.649-1.169h1.039s.421-.066.78.762c.278.625 1.173 2.516 1.587 3.388a.22.22 0 00.398 0c.41-.872 1.305-2.763 1.582-3.388.356-.828.782-.762.782-.762h1.039c.582 0 .648 1.169.648 1.169s.16 5.614.18 6.173c.02.559.187 1.414-.848 1.414h-.004z" fill="#fff"/><defs><linearGradient id="paint0_linear_14840_30805" x1="64.142" y1="43.5" x2="3.062" y2=".5" gradientUnits="userSpaceOnUse"><stop stop-color="#6100FF"/><stop offset="1" stop-color="#7E00E1"/></linearGradient><linearGradient id="paint1_linear_14840_30805" x1="57.045" y1="9.706" x2="4.187" y2="31.22" gradientUnits="userSpaceOnUse"><stop stop-color="#974BFF"/><stop offset="1" stop-color="#923FFC" stop-opacity="0"/></linearGradient></defs></svg>