<svg width="36" height="36" fill="none" xmlns="http://www.w3.org/2000/svg"><path d="M18 36c9.941 0 18-8.059 18-18S27.941 0 18 0 0 8.059 0 18s8.059 18 18 18z" fill="#627EEA"/><path d="M18.559 4.505v9.978l8.432 3.769L18.56 4.505z" fill="#fff" fill-opacity=".602"/><path d="M18.559 4.505L10.12 18.252l8.438-3.77V4.506z" fill="#fff"/><path d="M18.559 24.72v6.78l8.437-11.679-8.437 4.899z" fill="#fff" fill-opacity=".602"/><path d="M18.559 31.5v-6.78l-8.438-4.894L18.56 31.5z" fill="#fff"/><path d="M18.559 23.15l8.432-4.898-8.432-3.764v8.662z" fill="#fff" fill-opacity=".2"/><path d="M10.126 18.252l8.438 4.898v-8.662l-8.438 3.764z" fill="#fff" fill-opacity=".602"/></svg>