<svg xmlns="http://www.w3.org/2000/svg" width="44" height="36" fill="none"><path fill="url(#a)" fill-opacity=".6" d="M35.887.178H8.113C3.731.178.178 3.724.178 8.1v19.802c0 4.374 3.553 7.92 7.935 7.92h27.774c4.382 0 7.935-3.546 7.935-7.92V8.099c0-4.375-3.553-7.92-7.935-7.92"/><path fill="#5D2D88" d="M35.887 36H8.113C3.64 36 0 32.367 0 27.901V8.1C0 3.633 3.64 0 8.113 0h27.774C40.36 0 44 3.633 44 8.1v19.8c0 4.467-3.64 8.1-8.113 8.1M8.113.357C3.837.357.356 3.83.356 8.099v19.802c0 4.27 3.48 7.743 7.757 7.743h27.774c4.276 0 7.757-3.474 7.757-7.743V8.1c0-4.27-3.48-7.742-7.757-7.742z"/><path fill="url(#b)" d="M3.872 10.155v11.406h7.777c.618 0 1.22-.2 1.714-.57L36.406 3.739H10.3c-3.55 0-6.428 2.873-6.428 6.416"/><path fill="#fff" d="M11.649 21.703h-7.92V10.155c0-3.616 2.947-6.559 6.57-6.559h26.535l-.342.257-23.044 17.25c-.516.388-1.155.6-1.8.6m-7.635-.284h7.635a2.73 2.73 0 001.627-.543L35.977 3.882H10.3c-3.466 0-6.286 2.814-6.286 6.273z"/><path fill="#EB001B" d="M12.875 13.05a3.92 3.92 0 01-4.143.452 4 4 0 01-1.61-1.465 4 4 0 01-.596-2.099c0-.745.207-1.473.596-2.099a4 4 0 011.61-1.465 3.9 3.9 0 014.143.451c-.469.372-.842.84-1.104 1.386a3.97 3.97 0 001.103 4.84"/><path fill="#FF5F00" d="M14.375 9.938a3.97 3.97 0 01-1.5 3.112 3.97 3.97 0 01-1.5-3.112c0-.602.135-1.189.397-1.727a3.9 3.9 0 011.103-1.386 4 4 0 011.5 3.113"/><path fill="#F79E1B" d="M19.223 9.938a4 4 0 01-.595 2.099 4 4 0 01-1.611 1.465 3.9 3.9 0 01-4.142-.452 3.97 3.97 0 001.102-4.84 4 4 0 00-1.103-1.385 3.92 3.92 0 014.143-.452 4 4 0 011.61 1.466 4 4 0 01.596 2.099"/><path fill="url(#c)" d="M43.822 8.1v19.8c0 4.375-3.553 7.92-7.935 7.92H8.113c-4.382 0-7.935-3.545-7.935-7.92v-6.487c0-.436.357-.792.794-.792h10.657c.31 0 .61-.095.857-.277l23.25-16.848a.8.8 0 01.46-.15h5.579q.118 0 .232.014a.58.58 0 01.408.244A7.8 7.8 0 0143.822 8.1"/><path fill="url(#d)" d="M35.887 36H8.113C3.633 36 0 32.374 0 27.901v-6.487a.97.97 0 01.972-.97h10.657c.273 0 .54-.086.75-.242l23.252-16.85a1 1 0 01.565-.184h5.578c.135 0 .348.022.474.046.06.012.149.056.173.09A8 8 0 0144 8.099v19.803C44 32.374 40.367 36 35.887 36M.972 20.8a.615.615 0 00-.616.614v6.487c0 4.277 3.473 7.743 7.757 7.743h27.774c4.284 0 7.757-3.466 7.757-7.742V8.098A7.63 7.63 0 0042.3 3.753a.5.5 0 00-.374-.221q-.075-.007-.152-.007h-5.578a.63.63 0 00-.358.118L12.59 20.49c-.27.2-.612.31-.961.31z"/><path fill="url(#e)" fill-opacity=".85" d="M33.988 34.451h-1.143a.213.213 0 110-.427h1.143a.213.213 0 110 .427m-2.429 0h-1.142a.213.213 0 110-.427h1.142a.213.213 0 110 .427m-2.428 0h-1.143a.213.213 0 110-.427h1.143a.213.213 0 110 .427m-2.428 0H25.56a.213.213 0 110-.427h1.143a.213.213 0 110 .427m-2.428 0h-1.143a.213.213 0 110-.427h1.143a.213.213 0 110 .427m-2.429 0h-1.142a.213.213 0 110-.427h1.142a.213.213 0 110 .427m-2.428 0h-1.143a.213.213 0 110-.427h1.143a.213.213 0 110 .427m-2.428 0h-1.142a.213.213 0 110-.427h1.142a.213.213 0 110 .427m-2.428 0h-1.143a.213.213 0 110-.427h1.143a.213.213 0 110 .427m-2.428 0h-1.143a.213.213 0 110-.427h1.143a.213.213 0 110 .427m-2.429 0h-.798q-.178 0-.355-.008a.214.214 0 11.02-.427 7 7 0 00.335.008h.798a.213.213 0 110 .427m25.567-.002a.213.213 0 01-.005-.427 7.1 7.1 0 001.101-.115.217.217 0 01.25.17.214.214 0 01-.17.25 7.4 7.4 0 01-1.17.122zm-27.98-.18a.2.2 0 01-.048-.006 7.4 7.4 0 01-1.122-.356.214.214 0 11.163-.396c.34.139.695.252 1.055.335a.214.214 0 01-.048.422m30.35-.283a.214.214 0 01-.077-.414c.343-.132.68-.292 1-.477a.213.213 0 01.292.078.213.213 0 01-.077.292c-.34.196-.697.367-1.061.506a.2.2 0 01-.077.015m-32.578-.653a.2.2 0 01-.115-.034 7.4 7.4 0 01-.936-.709.213.213 0 01-.017-.302.215.215 0 01.302-.017c.277.246.574.47.882.667a.214.214 0 01-.116.395m34.656-.579a.21.21 0 01-.163-.075.21.21 0 01.024-.3 7 7 0 00.783-.782.21.21 0 01.302-.024c.09.076.1.211.024.3a7.3 7.3 0 01-.832.83.2.2 0 01-.138.051M3.277 31.71a.21.21 0 01-.17-.082 7 7 0 01-.646-.978.214.214 0 01.375-.206c.176.32.382.63.61.921a.213.213 0 01-.17.345m37.993-.805a.215.215 0 01-.185-.322q.279-.477.479-.997a.214.214 0 01.277-.123c.11.042.166.166.123.276-.14.366-.312.723-.508 1.06a.22.22 0 01-.186.106M2.133 29.587a.21.21 0 01-.203-.146 7.4 7.4 0 01-.283-1.14.214.214 0 01.177-.245.217.217 0 01.246.176c.06.364.15.726.266 1.073a.214.214 0 01-.203.282m39.98-.943l-.04-.004a.214.214 0 01-.171-.25c.068-.361.107-.731.117-1.098a.214.214 0 11.428.01 7.4 7.4 0 01-.124 1.167.215.215 0 01-.21.175M1.766 27.203a.213.213 0 01-.214-.214v-1.14c0-.12.095-.214.214-.214.118 0 .214.095.214.213v1.141a.213.213 0 01-.214.214m40.47-.976a.213.213 0 01-.215-.213v-1.141a.214.214 0 11.428 0v1.14a.213.213 0 01-.214.214m-40.47-1.449a.213.213 0 01-.214-.213v-1.14a.214.214 0 11.428 0v1.14a.213.213 0 01-.214.213m40.47-.974a.213.213 0 01-.215-.214v-1.14a.214.214 0 01.428-.001v1.141a.213.213 0 01-.214.214m-40.47-1.449a.213.213 0 01-.214-.213V21a.214.214 0 11.428 0v1.14a.213.213 0 01-.214.214m40.47-.975a.213.213 0 01-.215-.214v-1.14c0-.118.096-.213.214-.213.119 0 .214.095.214.213v1.14a.213.213 0 01-.214.214m-40.47-1.45a.213.213 0 01-.214-.213v-1.14c0-.118.095-.213.214-.213.118 0 .214.095.214.213v1.14a.213.213 0 01-.214.214m40.47-.974a.213.213 0 01-.215-.213v-1.141a.214.214 0 11.428 0v1.14a.213.213 0 01-.214.214m-40.47-1.448a.214.214 0 01-.214-.214v-1.14a.214.214 0 11.428 0v1.14a.214.214 0 01-.214.214m40.47-.976a.214.214 0 01-.215-.213v-1.141a.214.214 0 11.428 0v1.14a.214.214 0 01-.214.214m-40.47-1.448a.214.214 0 01-.214-.214v-1.14a.214.214 0 11.428 0v1.14a.214.214 0 01-.214.214m40.47-.975a.214.214 0 01-.215-.214v-1.14a.214.214 0 11.428 0v1.14a.214.214 0 01-.214.214M1.765 12.66a.214.214 0 01-.214-.214v-1.14a.214.214 0 11.428 0v1.14a.214.214 0 01-.214.214m40.47-.975a.214.214 0 01-.215-.214v-1.14a.214.214 0 11.428 0v1.14a.214.214 0 01-.214.214m-40.47-1.449a.214.214 0 01-.214-.213V8.89c0-.118.095-.218.214-.218a.21.21 0 01.214.209v1.14a.214.214 0 01-.214.214m40.47-.975a.214.214 0 01-.215-.213V8.89q0-.482-.065-.952a.214.214 0 01.183-.24.215.215 0 01.242.182c.045.33.068.67.068 1.01v.157a.214.214 0 01-.214.213M1.881 7.821l-.039-.004a.214.214 0 01-.172-.249c.07-.388.173-.77.304-1.134a.213.213 0 01.273-.13c.112.04.17.163.13.274a7 7 0 00-.285 1.067.214.214 0 01-.211.175m39.998-.945a.21.21 0 01-.203-.147 7 7 0 00-.43-1.018.213.213 0 01.092-.289.215.215 0 01.288.091c.179.344.332.708.456 1.082a.214.214 0 01-.203.28M2.712 5.556a.214.214 0 01-.186-.32q.296-.512.665-.968a.215.215 0 01.334.27 7 7 0 00-.627.91.22.22 0 01-.186.108m38.034-.81a.22.22 0 01-.17-.082 7 7 0 00-.744-.818.213.213 0 01-.01-.302.216.216 0 01.303-.01c.284.266.55.558.79.868a.214.214 0 01-.17.345M4.252 3.699a.214.214 0 01-.14-.376 7.5 7.5 0 01.949-.691.214.214 0 01.224.364 7 7 0 00-.893.651.2.2 0 01-.14.052m34.716-.583a.2.2 0 01-.116-.034 7 7 0 00-.976-.525.214.214 0 01.172-.391c.357.156.705.343 1.036.556a.214.214 0 01-.116.394M6.324 2.457a.213.213 0 01-.077-.413 7 7 0 011.126-.336.215.215 0 01.088.418 7 7 0 00-1.06.316.2.2 0 01-.077.015m30.42-.29a.2.2 0 01-.05-.005 7 7 0 00-1.093-.168.215.215 0 01-.198-.229c.008-.117.1-.201.229-.198.391.029.782.089 1.162.179a.214.214 0 01-.05.422M8.692 1.98a.214.214 0 01-.006-.428l.221-.003h1.143a.214.214 0 110 .428H8.907l-.21.003zm25.64-.003h-1.143a.214.214 0 110-.428h1.143a.214.214 0 110 .428m-2.428 0H30.76a.214.214 0 110-.428h1.143a.214.214 0 110 .428m-2.429 0h-1.142a.214.214 0 110-.428h1.142a.214.214 0 110 .428m-2.428 0h-1.143a.214.214 0 110-.428h1.143a.214.214 0 110 .428m-2.428 0h-1.142a.214.214 0 110-.428h1.142a.214.214 0 110 .428m-2.428 0h-1.143a.214.214 0 110-.428h1.143a.214.214 0 110 .428m-2.429 0H18.62a.214.214 0 110-.428h1.142a.214.214 0 110 .428m-2.427 0h-1.143a.214.214 0 110-.428h1.143a.214.214 0 110 .428m-2.429 0h-1.142a.214.214 0 110-.428h1.142a.214.214 0 110 .428m-2.428 0h-1.143a.214.214 0 110-.428h1.143a.214.214 0 110 .428" opacity=".85"/><path fill="#fff" d="M27.793 25.984v2.365h-.759v-5.841h2.011a1.83 1.83 0 011.302.505c.353.314.551.764.544 1.233a1.61 1.61 0 01-.544 1.24q-.528.498-1.302.497zm0-2.757v2.04h1.27c.283.008.555-.102.75-.303a.99.99 0 00.02-1.408l-.02-.02a1 1 0 00-.75-.309zm4.845.995q.841 0 1.328.444.485.445.485 1.22v2.463h-.725v-.555h-.032q-.471.685-1.253.685-.668 0-1.117-.392a1.25 1.25 0 01-.449-.979q0-.62.474-.986t1.265-.367q.676 0 1.112.244v-.171a.85.85 0 00-.313-.665 1.08 1.08 0 00-.732-.273q-.635 0-1.005.53l-.667-.416q.55-.782 1.63-.782m-.98 2.903a.595.595 0 00.25.49c.168.13.376.2.59.196.32-.001.626-.127.852-.35q.378-.352.377-.825-.354-.28-.989-.28-.462 0-.77.22-.311.224-.31.55m6.956-2.773l-2.531 5.759H35.3l.94-2.015-1.666-3.744h.824l1.204 2.871h.016l1.17-2.87z"/><path fill="#4285F4" d="M24.955 25.436q0-.345-.059-.683h-3.198v1.292h1.831a1.55 1.55 0 01-.677 1.02l1.094.84c.64-.584 1.008-1.448 1.008-2.47"/><path fill="#34A853" d="M21.698 28.715c.915 0 1.686-.297 2.247-.81l-1.093-.84c-.304.205-.695.321-1.154.321-.884 0-1.635-.59-1.903-1.384l-1.126.864a3.39 3.39 0 003.03 1.85"/><path fill="#FBBC04" d="M19.795 26.002a2 2 0 010-1.285l-1.126-.864a3.32 3.32 0 000 3.014z"/><path fill="#EA4335" d="M21.698 23.332c.483-.008.95.173 1.3.503l.969-.958a3.28 3.28 0 00-2.269-.874 3.4 3.4 0 00-3.03 1.849l1.127.865c.268-.795 1.019-1.385 1.903-1.385"/><defs><linearGradient id="a" x1="2.4" x2="40.4" y1="32.4" y2="1.2" gradientUnits="userSpaceOnUse"><stop stop-color="#3D0099"/><stop offset="1" stop-color="#7000AD"/></linearGradient><linearGradient id="b" x1="25.633" x2="15.617" y1="26.757" y2=".944" gradientUnits="userSpaceOnUse"><stop stop-color="#7DC0FF"/><stop offset="1" stop-color="#D7E4FF"/></linearGradient><linearGradient id="c" x1="7.157" x2="42.984" y1="38.102" y2="9.713" gradientUnits="userSpaceOnUse"><stop stop-color="#4100F5"/><stop offset=".64" stop-color="#8335FF"/><stop offset="1" stop-color="#9554FF"/></linearGradient><linearGradient id="d" x1="41.038" x2="2.19" y1="3.168" y2="33.437" gradientUnits="userSpaceOnUse"><stop stop-color="#B587FF"/><stop offset="1" stop-color="#7A4DF8"/></linearGradient><linearGradient id="e" x1="6.497" x2="35.762" y1="1.548" y2="34.504" gradientUnits="userSpaceOnUse"><stop stop-color="#895BFF"/><stop offset="1" stop-color="#DAC4FF"/></linearGradient></defs></svg>