<svg width="55" height="55" fill="none" xmlns="http://www.w3.org/2000/svg"><g clip-path="url(#clip0_3080_230082)"><mask id="a" style="mask-type:luminance" maskUnits="userSpaceOnUse" x="0" y="0" width="55" height="55"><path d="M55 0H0v55h55V0z" fill="#fff"/></mask><g mask="url(#a)"><path d="M27.5 55C42.688 55 55 42.688 55 27.5S42.688 0 27.5 0 0 12.312 0 27.5 12.312 55 27.5 55z" fill="#08C"/><path fill-rule="evenodd" clip-rule="evenodd" d="M19.848 18.174h15.424c.545 0 1.09.08 1.66.346.683.318 1.046.82 1.3 1.191a3.46 3.46 0 01.508 1.81c-.001.587-.14 1.225-.453 1.782l-.01.016-9.744 16.739a1.196 1.196 0 01-2.07-.007l-9.566-16.704-.009-.013c-.219-.361-.557-.919-.616-1.639a3.262 3.262 0 011.863-3.217c.645-.302 1.3-.304 1.713-.304zm6.456 2.391h-6.456c-.424 0-.587.026-.701.08a.855.855 0 00-.378.347.872.872 0 00-.114.507c.008.102.05.218.294.621l.015.026 7.34 12.817V20.565zm2.392 0v14.461l7.51-12.9c.084-.155.142-.377.142-.604 0-.185-.038-.345-.124-.51a1.912 1.912 0 00-.19-.244.351.351 0 00-.112-.081c-.177-.083-.36-.122-.65-.122h-6.576z" fill="#fff"/></g></g><defs><clipPath id="clip0_3080_230082"><path fill="#fff" d="M0 0h55v55H0z"/></clipPath></defs></svg>