<svg width="48" height="48" fill="none" xmlns="http://www.w3.org/2000/svg"><path d="M24 0c13.256 0 24 10.744 24 24S37.256 48 24 48 0 37.256 0 24 10.744 0 24 0z" fill="#2675CA"/><path d="M18.133 39.801c0 .545-.418.853-.938.688C10.317 38.26 5.333 31.722 5.333 24c0-7.721 4.984-14.26 11.862-16.489.515-.165.938.143.938.688v1.338c0 .363-.277.787-.613.902-5.44 2.026-9.34 7.331-9.34 13.55 0 6.22 3.9 11.52 9.34 13.55.336.127.613.545.613.903V39.8z" fill="#fff"/><path d="M25.544 35.495c0 .42-.323.772-.722.772h-1.426c-.393 0-.72-.345-.72-.772v-2.42c-3.126-.45-4.656-2.328-5.066-4.877-.07-.433.252-.824.667-.824h1.634c.338 0 .628.257.699.625.306 1.52 1.125 2.684 3.628 2.684 1.852 0 3.163-1.105 3.163-2.76 0-1.654-.77-2.28-3.486-2.76-4.004-.578-5.9-1.876-5.9-5.238 0-2.596 1.83-4.613 4.671-5.046v-2.374c0-.42.322-.772.721-.772h1.426c.394 0 .721.345.721.772v2.444c2.312.444 3.776 1.848 4.251 4.175.087.444-.235.853-.656.853h-1.508c-.322 0-.595-.228-.693-.567-.405-1.479-1.394-2.116-3.11-2.116-1.895 0-2.873.982-2.873 2.356 0 1.45.557 2.18 3.47 2.637 3.933.579 5.966 1.777 5.966 5.367 0 2.72-1.885 4.923-4.841 5.432v2.42h-.011l-.005-.011z" fill="#fff"/><path d="M30.805 40.489c-.515.165-.938-.143-.938-.688v-1.339c0-.396.239-.77.613-.903 5.44-2.026 9.34-7.335 9.34-13.558s-3.9-11.526-9.34-13.558c-.336-.127-.613-.545-.613-.903V8.202c0-.545.418-.86.938-.689 6.878 2.23 11.862 8.773 11.862 16.5-.01 7.703-4.984 14.246-11.862 16.481v-.005z" fill="#fff"/></svg>