<svg width="41" height="45" fill="none" xmlns="http://www.w3.org/2000/svg"><g clip-path="url(#clip0_12172_20093)" fill-rule="evenodd" clip-rule="evenodd"><path d="M5.839 39.436C2.503 36.072.833 30.79.833 24.016V1.466C.833.935 1.29.5 1.846.5h11.696c.557 0 1.013.435 1.013.966v23.248c0 2.197.33 4.716 1.73 6.538 2.175 2.83 6.92 2.83 9.096 0 1.4-1.822 1.73-4.341 1.73-6.538V20.67h13.721v3.347c0 6.774-1.67 12.056-5.005 15.42-6.696 6.752-23.292 6.752-29.988 0z" fill="#fff"/><path d="M27.112 18.119V1.512c0-.556.477-1.012 1.06-1.012h1.915c.004 5.67 4.802 10.265 10.743 10.265h.003v7.354H27.112z" fill="#fff"/><path d="M32.764.5h7.009c.583 0 1.06.455 1.06 1.012V8.21c-4.456 0-8.069-3.448-8.069-7.7V.5z" fill="#FF7A00"/></g><defs><clipPath id="clip0_12172_20093"><path fill="#fff" transform="translate(.833 .5)" d="M0 0h40v44H0z"/></clipPath></defs></svg>