<svg width="37" height="37" fill="none" xmlns="http://www.w3.org/2000/svg"><g clip-path="url(#clip0_11865_16847)"><path fill="url(#paint0_linear_11865_16847)" d="M7.433 13.533H31.7v21.919H7.433z"/><g filter="url(#filter0_b_11865_16847)"><path d="M31.338 0H5.662A2.413 2.413 0 003.25 2.413v32.174A2.413 2.413 0 005.662 37h25.676a2.413 2.413 0 002.413-2.413V2.413A2.413 2.413 0 0031.338 0z" fill="url(#paint1_linear_11865_16847)"/><path d="M5.662.231h25.676c1.205 0 2.181.977 2.181 2.182v32.174a2.182 2.182 0 01-2.181 2.182H5.662a2.182 2.182 0 01-2.182-2.182V2.413c0-1.205.977-2.182 2.182-2.182z" stroke="url(#paint2_linear_11865_16847)" stroke-opacity=".51" stroke-width=".463"/></g><g filter="url(#filter1_i_11865_16847)" fill="#fff" fill-opacity=".9"><path d="M28.12 25.74H8.814a.804.804 0 100 1.608H28.12a.804.804 0 000-1.609zM17.663 30.565H8.815a.804.804 0 100 1.609h8.848a.805.805 0 000-1.609zM28.12 20.913H8.814a.804.804 0 100 1.609H28.12a.804.804 0 000-1.609z"/></g><g filter="url(#filter2_i_11865_16847)" fill="#fff"><path d="M28.12 16.087h-.805v-4.435a.391.391 0 00-.392-.391h-.825a.391.391 0 00-.392.391v4.435h-1.608v-4.435a.391.391 0 00-.392-.391h-.826a.391.391 0 00-.391.391v4.435H20.88v-4.435a.391.391 0 00-.391-.391h-.826a.391.391 0 00-.392.391v4.435h-1.608v-4.435a.391.391 0 00-.392-.391h-.826a.391.391 0 00-.391.391v4.435h-.804a.804.804 0 100 1.609h12.87a.805.805 0 000-1.609zM28.479 7.324l-6.435-3.218a.805.805 0 00-.72 0L14.89 7.324a.804.804 0 00-.445.72v.804a.805.805 0 00.805.804h12.87a.804.804 0 00.804-.804v-.804a.805.805 0 00-.445-.72z"/></g></g><defs><linearGradient id="paint0_linear_11865_16847" x1="13.286" y1="13.139" x2="36.823" y2="22.331" gradientUnits="userSpaceOnUse"><stop stop-color="#FF5E5E"/><stop offset=".703" stop-color="#FF3FBE"/></linearGradient><linearGradient id="paint1_linear_11865_16847" x1="3.249" y1="0" x2="39.364" y2="8.108" gradientUnits="userSpaceOnUse"><stop stop-color="#10C6FF"/><stop offset="1" stop-color="#2871FF"/></linearGradient><linearGradient id="paint2_linear_11865_16847" x1="4.202" y1="1.682" x2="33.751" y2="1.682" gradientUnits="userSpaceOnUse"><stop stop-color="#fff"/><stop offset="1" stop-color="#3491FF"/></linearGradient><filter id="filter0_b_11865_16847" x="-7.71" y="-10.959" width="52.42" height="58.919" filterUnits="userSpaceOnUse" color-interpolation-filters="sRGB"><feFlood flood-opacity="0" result="BackgroundImageFix"/><feGaussianBlur in="BackgroundImageFix" stdDeviation="5.48"/><feComposite in2="SourceAlpha" operator="in" result="effect1_backgroundBlur_11865_16847"/><feBlend in="SourceGraphic" in2="effect1_backgroundBlur_11865_16847" result="shape"/></filter><filter id="filter1_i_11865_16847" x="8.011" y="20.913" width="20.913" height="14.344" filterUnits="userSpaceOnUse" color-interpolation-filters="sRGB"><feFlood flood-opacity="0" result="BackgroundImageFix"/><feBlend in="SourceGraphic" in2="BackgroundImageFix" result="shape"/><feColorMatrix in="SourceAlpha" values="0 0 0 0 0 0 0 0 0 0 0 0 0 0 0 0 0 0 127 0" result="hardAlpha"/><feOffset dy="3.083"/><feGaussianBlur stdDeviation="1.542"/><feComposite in2="hardAlpha" operator="arithmetic" k2="-1" k3="1"/><feColorMatrix values="0 0 0 0 1 0 0 0 0 1 0 0 0 0 1 0 0 0 0.4 0"/><feBlend in2="shape" result="effect1_innerShadow_11865_16847"/></filter><filter id="filter2_i_11865_16847" x="14.445" y="4.021" width="14.479" height="16.757" filterUnits="userSpaceOnUse" color-interpolation-filters="sRGB"><feFlood flood-opacity="0" result="BackgroundImageFix"/><feBlend in="SourceGraphic" in2="BackgroundImageFix" result="shape"/><feColorMatrix in="SourceAlpha" values="0 0 0 0 0 0 0 0 0 0 0 0 0 0 0 0 0 0 127 0" result="hardAlpha"/><feOffset dy="3.083"/><feGaussianBlur stdDeviation="1.542"/><feComposite in2="hardAlpha" operator="arithmetic" k2="-1" k3="1"/><feColorMatrix values="0 0 0 0 1 0 0 0 0 1 0 0 0 0 1 0 0 0 0.4 0"/><feBlend in2="shape" result="effect1_innerShadow_11865_16847"/></filter><clipPath id="clip0_11865_16847"><path fill="#fff" d="M0 0h37v37H0z"/></clipPath></defs></svg>