<svg width="97" height="17" fill="none" xmlns="http://www.w3.org/2000/svg"><path d="M65.416.002c-.026 0-.054.004-.08.004-.483.017-.935.18-1.357.494-.448.333-.74.737-.886 1.213L61.032 8.61c-.105.436-.043.806.186 1.1.149.194.352.327.598.406.144.045.305.07.483.078l16.529.004-1.035 3.461h-18.28l-.988 3.32 18.276.001h1.809c.037 0 .077-.004.114-.006a2.434 2.434 0 001.334-.48c.453-.322.752-.722.895-1.198 0 0 2.033-6.81 2.04-6.838.107-.432.046-.798-.188-1.098-.25-.323-.632-.484-1.144-.484H65.195l1.068-3.556h18.27l.993-3.314-20.11-.004zM3.646 16.979H0L5.072.022h3.65L3.645 16.98zM35.401.022L20.17 11.929l-5.31-8.143L12.401.022h-.066l-1.158 3.865L7.264 16.98h3.647l2.745-9.177L19.472 17l9.63-8.142-2.417 8.12h3.65l3.56-11.9L35.408.021H35.4zM60.04.488C59.79.162 59.4 0 58.87 0H38.815l-.994 3.322 18.243-.004-1.062 3.55-18.234.007-3.035 10.102h3.65l2.033-6.791h16.407c.51 0 .993-.16 1.449-.484.45-.324.749-.724.89-1.2l2.032-6.791c.15-.494.096-.9-.154-1.223z" fill="#fff"/><path d="M92.405.072L97 8.534l-9.66 8.457L92.404.072z" fill="#298D3E"/><path d="M89.184.072l4.592 8.462-9.666 8.457L89.184.072z" fill="#F36817"/></svg>