<svg width="57" height="28" fill="none" xmlns="http://www.w3.org/2000/svg"><path d="M17.761 4.2a4.18 4.18 0 00-4.16-4.2 4.181 4.181 0 00-4.216 4.147 4.18 4.18 0 004.161 4.2 4.18 4.18 0 004.215-4.146z" fill="url(#paint0_linear_2767_10713)"/><path d="M21.094 1.386h4.794v26.4h-4.794v-26.4zM29.883 10.186h4.795v17.6h-4.795v-17.6zM8.882 10.299a8.872 8.872 0 00-4.2 1.05V1.34H0v17.808c0 1.75.52 3.462 1.496 4.918a8.872 8.872 0 003.985 3.26 8.912 8.912 0 005.13.506 8.89 8.89 0 004.548-2.422 8.822 8.822 0 001.927-9.645 8.853 8.853 0 00-3.27-3.973A8.904 8.904 0 008.881 10.3zm0 13.108c-.845 0-1.672-.25-2.374-.718a4.261 4.261 0 01-1.574-1.911 4.246 4.246 0 01.926-4.642 4.283 4.283 0 016.575.645 4.244 4.244 0 01-.53 5.379 4.282 4.282 0 01-3.023 1.247zM50.117 27.786h6.135l-7.371-9.301 6.684-7.992H50l-6.563 8.042V1.385h-4.764v26.4h4.764l-.004-9.228 6.684 9.229z" fill="#fff"/><defs><linearGradient id="paint0_linear_2767_10713" x1="10.589" y1="7.101" x2="16.538" y2="1.218" gradientUnits="userSpaceOnUse"><stop stop-color="#E52F08"/><stop offset="1" stop-color="#E94F96"/></linearGradient></defs></svg>