<svg width="36" height="36" fill="none" xmlns="http://www.w3.org/2000/svg"><path d="M18 36c9.941 0 18-8.059 18-18S27.941 0 18 0 0 8.059 0 18s8.059 18 18 18z" fill="#F1070C"/><path d="M28.024 15.453c-.951-.835-2.268-2.11-3.339-3.014l-.064-.042a1.23 1.23 0 00-.351-.187c-2.585-.458-14.61-2.594-14.845-2.567a.458.458 0 00-.185.067l-.06.045a.668.668 0 00-.164.253L9 10.047v.247c1.354 3.583 6.7 15.32 7.752 18.074.064.187.184.543.41.56h.05c.12 0 .635-.645.635-.645s9.181-10.583 10.11-11.71c.121-.139.227-.287.317-.445a.692.692 0 00-.032-.37.727.727 0 00-.218-.305zm-7.822 1.232l3.92-3.089 2.297 2.013-6.217 1.076zm-1.522-.201l-6.747-5.256 10.916 1.914-4.169 3.341zm.608 1.376l6.906-1.057-7.895 9.04.99-7.983zm-8.272-6.107l7.1 5.724-1.028 8.372-6.072-14.097v.001z" fill="#fff"/></svg>