<svg width="96" height="40" fill="none" xmlns="http://www.w3.org/2000/svg"><path d="M76.055 0C87.07 0 96 8.954 96 20s-8.93 20-19.945 20h-56.11C8.93 40 0 31.046 0 20S8.93 0 19.945 0h56.11zM44.18 25.17c-.593 0-1.13.104-1.61.31-.48.2-.867.473-1.16.82-.293.34-.52.723-.68 1.15a3.96 3.96 0 00-.23 1.35c0 .473.077.924.23 1.35.16.427.387.813.68 1.16.294.34.68.613 1.16.82.48.2 1.017.3 1.61.3.593 0 1.127-.1 1.6-.3.48-.207.867-.48 1.16-.82.3-.347.527-.733.68-1.16.16-.426.24-.877.24-1.35 0-.473-.08-.923-.24-1.35a3.525 3.525 0 00-.68-1.15c-.293-.347-.68-.62-1.16-.82a3.963 3.963 0 00-1.6-.31zm12.715 2.2c-.287 0-.571.054-.851.16-.28.1-.54.25-.78.45-.24.194-.433.46-.58.8-.146.334-.22.707-.22 1.12 0 .807.257 1.43.77 1.87.52.44 1.17.66 1.95.66.687 0 1.26-.11 1.72-.33v-.92c-.466.226-.974.34-1.52.34-.48 0-.893-.1-1.24-.3a1.2 1.2 0 01-.6-.92h3.61c.054-.28.077-.557.07-.83a2.06 2.06 0 00-.18-.8 2.43 2.43 0 00-.44-.67 1.867 1.867 0 00-.72-.46 2.73 2.73 0 00-.99-.17zm6.808-2.2a4.05 4.05 0 00-1.36.23c-.434.154-.827.38-1.18.68-.353.293-.637.68-.85 1.16a3.95 3.95 0 00-.32 1.62c0 .573.106 1.093.32 1.56.213.467.5.843.86 1.13.36.286.756.507 1.19.66.433.147.883.22 1.35.22.726 0 1.403-.154 2.03-.46v-1.13c-.474.36-1.084.54-1.83.54-.467 0-.904-.086-1.31-.26a2.423 2.423 0 01-1.03-.85c-.28-.394-.42-.863-.42-1.41.006-.866.28-1.524.82-1.97.54-.447 1.18-.67 1.92-.67.7 0 1.3.174 1.8.52v-1.11a4.388 4.388 0 00-1.99-.46zm10.345 2.2c-.713 0-1.334.22-1.86.66-.527.44-.79 1.077-.79 1.91 0 .8.257 1.417.77 1.85.513.427 1.12.64 1.82.64.6 0 1.13-.11 1.59-.33v-.99a2.75 2.75 0 01-1.4.37c-.467 0-.867-.133-1.2-.4-.327-.273-.49-.666-.49-1.18 0-.526.166-.92.5-1.18.332-.267.736-.4 1.21-.4.512 0 .956.133 1.33.4v-.98c-.414-.246-.907-.37-1.48-.37zm-22.543 0c-.673 0-1.23.264-1.67.79v-.66h-.95v4.8h1.07v-3.18c.367-.533.813-.8 1.34-.8.333 0 .604.1.81.3.207.193.31.477.31.85v2.83h1.07v-2.97c0-.58-.18-1.05-.54-1.41-.36-.367-.84-.55-1.44-.55zm15.31 4.93h1.07V25h-1.07v7.3zm2.452 0h1.07v-4.8h-1.07v4.8zm7.352 0h1.07v-1.99h.771l1.58 1.99h1.23l-1.93-2.42 1.74-2.38h-1.22l-1.38 1.9h-.79v-4.1h-1.07v7zm-32.44-6.06c.807 0 1.428.247 1.861.74.44.494.66 1.1.66 1.82s-.22 1.327-.66 1.82c-.433.493-1.054.74-1.86.74-.8 0-1.42-.247-1.86-.74-.44-.493-.66-1.1-.66-1.82s.22-1.326.66-1.82c.44-.493 1.06-.74 1.86-.74zm-26.33 1.751V31h14.46v-3.009H17.85zm39.095.269c.467 0 .8.14 1 .42.207.273.29.547.25.82h-2.66c.02-.387.163-.69.43-.91.273-.22.6-.33.98-.33zm12.863-2.95a.679.679 0 00-.47.17c-.127.107-.19.26-.19.46 0 .207.063.367.19.48.127.106.283.16.47.16.186 0 .34-.053.46-.16.126-.113.19-.273.19-.48 0-.2-.064-.353-.19-.46a.644.644 0 00-.46-.17zM25.187 9c-1.634 0-2.134.963-2.563 2.2l-4.467 12.71h2.965l1.028-3.02h5.705l.961 3.026h3.164L27.71 11.2c-.412-1.22-.89-2.2-2.524-2.2zM40.5 21h2.852v-4.22h4.152c1.316 0 2.363-.326 3.14-.978.776-.653 1.164-1.626 1.164-2.92 0-1.305-.388-2.272-1.164-2.903-.766-.64-1.812-.962-3.14-.962H40.5V21zm11.032 0h2.887l.895-2.076h5.704L61.912 21h3.038L59.718 9H56.78l-5.249 12zm17.277-5.046V21h3.004v-5.03l5.08-6.953h-3.224l-3.273 4.354-3.258-4.354h-3.646l5.317 6.937zM27.034 18.35H23.02l2.024-6.05h.071l1.92 6.05zm32.954-1.823h-3.645l1.822-4.236 1.823 4.236zm-12.754-5.012c1.091 0 1.637.461 1.637 1.383 0 .923-.545 1.385-1.637 1.385h-3.882v-2.768h3.882z" fill="#F33629"/></svg>