<svg width="36" height="36" fill="none" xmlns="http://www.w3.org/2000/svg"><rect width="36" height="36" rx="18" fill="url(#paint0_linear_11397_18387)"/><path d="M20.11 6.665a.923.923 0 00-1.314 0l-.34.344a.923.923 0 000 1.298l2.033 2.058H12a.923.923 0 00-.923.923v.5c0 .51.413.924.923.924h8.489l-2.034 2.058a.923.923 0 000 1.298l.34.344a.923.923 0 001.314 0l4.173-4.225a.923.923 0 000-1.297L20.11 6.665zM15.89 19.588a.923.923 0 011.314 0l.34.344a.923.923 0 010 1.298l-2.033 2.058H24c.51 0 .923.413.923.923v.5c0 .51-.413.924-.923.924H15.51l2.034 2.058a.923.923 0 010 1.297l-.34.345a.923.923 0 01-1.314 0l-4.174-4.225a.923.923 0 010-1.297l4.174-4.225z" fill="#fff"/><defs><linearGradient id="paint0_linear_11397_18387" x1="3.5" y1="30" x2="33" y2="6.5" gradientUnits="userSpaceOnUse"><stop stop-color="#1A3EFF"/><stop offset="1" stop-color="#477AFF"/></linearGradient></defs></svg>